<svg width="1058" height="540" viewBox="0 0 1058 540" fill="none" xmlns="http://www.w3.org/2000/svg">
<path d="M85.6731 539.603C62.2038 539.603 42.0577 531.364 25.2346 514.887C8.41154 498.428 0 478.455 0 454.968C0 431.499 8.41154 411.456 25.2346 394.841C42.0577 378.226 62.2038 369.918 85.6731 369.918H135.727C135.727 379.247 132.438 387.208 125.862 393.768C119.285 400.345 111.34 403.633 101.994 403.633H85.6557C71.6538 403.633 59.7461 408.687 49.9154 418.795C40.0846 428.903 35.1692 440.949 35.1692 454.951C35.1692 468.953 40.0846 480.93 49.9154 490.899C59.7461 500.868 71.6538 505.853 85.6557 505.853H101.994C111.323 505.853 119.285 509.141 125.862 515.718C132.438 522.295 135.727 530.239 135.727 539.585H85.6731V539.603Z" fill="url(#paint0_linear_692_675)"/>
<path d="M228.392 369.935C251.862 369.935 272.042 378.243 288.935 394.858C305.827 411.474 314.273 431.516 314.273 454.985C314.273 478.454 305.827 498.427 288.935 514.904C272.042 531.381 251.862 539.62 228.392 539.62C204.923 539.62 184.777 531.381 167.954 514.904C151.131 498.445 142.719 478.472 142.719 454.985C142.719 431.516 151.131 411.474 167.954 394.858C184.777 378.243 204.923 369.935 228.392 369.935ZM228.392 403.65C214.39 403.65 202.552 408.704 192.877 418.812C183.185 428.92 178.356 440.966 178.356 454.968C178.356 468.97 183.202 480.947 192.877 490.916C202.569 500.885 214.408 505.87 228.392 505.87C242.394 505.87 254.267 500.885 264.029 490.916C273.79 480.947 278.671 468.97 278.671 454.968C278.671 440.966 273.79 428.92 264.029 418.812C254.267 408.704 242.394 403.65 228.392 403.65Z" fill="url(#paint1_linear_692_675)"/>
<path d="M528.49 539.602C518.728 539.602 510.352 536.106 503.359 529.097C496.367 522.104 492.854 513.727 492.854 503.966V369.935C502.615 369.935 510.992 373.431 517.984 380.424C524.977 387.416 528.49 395.793 528.49 405.554V539.602Z" fill="url(#paint2_linear_692_675)"/>
<path d="M682.027 454.985C682.027 441.139 677.146 429.11 667.384 418.933C657.623 408.756 645.819 403.668 631.973 403.668C617.971 403.668 606.098 408.722 596.336 418.83C586.575 428.937 581.694 440.983 581.694 454.985V503.983C581.694 513.745 578.198 522.122 571.188 529.114C564.196 536.107 555.819 539.62 546.058 539.62V455.003C546.058 431.533 554.469 411.491 571.292 394.876C588.115 378.26 608.331 369.953 631.938 369.953C655.408 369.953 675.554 378.26 692.377 394.876C709.2 411.491 717.611 431.533 717.611 455.003V539.62C707.85 539.62 699.473 536.124 692.481 529.114C685.488 522.122 681.992 513.745 681.992 503.983V454.985H682.027Z" fill="url(#paint3_linear_692_675)"/>
<path d="M870.145 405.572C870.145 395.81 873.641 387.433 880.633 380.441C887.625 373.449 896.002 369.953 905.764 369.953V454.57C905.764 478.039 897.352 498.081 880.529 514.697C863.706 531.312 843.56 539.62 820.091 539.62C796.483 539.62 776.25 531.312 759.444 514.697C742.621 498.081 734.21 478.039 734.21 454.57V369.953C743.971 369.953 752.348 373.449 759.341 380.441C766.333 387.433 769.846 395.81 769.846 405.572V454.57C769.846 468.572 774.727 480.618 784.489 490.726C794.25 500.833 806.123 505.887 820.125 505.887C833.971 505.887 845.793 500.799 855.537 490.622C865.298 480.445 870.179 468.433 870.179 454.57V405.572H870.145Z" fill="url(#paint4_linear_692_675)"/>
<path d="M403.927 539.776C388.263 539.568 373.154 536.228 358.598 529.738C344.838 523.593 336.167 509.713 336.167 494.638V486.728C360.208 504.33 383.192 513.14 405.138 513.14C415.142 513.14 423 511.149 428.729 507.186C434.457 503.222 437.313 498.22 437.313 492.197C437.313 485.69 433.558 480.255 426.063 475.893C418.569 471.532 406.99 467.534 391.327 463.882C371.959 459.278 357.802 453.29 348.854 445.917C339.906 438.543 335.423 428.99 335.423 417.238C335.423 402.959 341.308 391.415 353.094 382.622C364.863 373.813 379.471 369.417 396.9 369.417C409.344 369.417 421.563 371.338 433.54 375.163C449.498 380.268 460.073 395.482 460.073 412.236V416.528C451.367 410.505 441.277 405.434 429.819 401.297C418.361 397.178 407.388 395.118 396.9 395.118C387.536 395.118 379.713 397.143 373.431 401.193C367.131 405.243 363.998 410.505 363.998 417.013C363.998 423.365 367.667 428.245 375.006 431.638C382.344 435.047 394.494 438.665 411.421 442.472C447.715 450.884 465.871 467.447 465.871 492.197C465.871 507.272 459.9 519.041 447.957 527.54C436.032 536.02 421.356 540.105 403.927 539.776Z" fill="url(#paint5_linear_692_675)"/>
<path d="M991.679 539.776C977.868 539.585 964.506 536.851 951.577 531.572C935.62 525.047 925.356 509.314 925.356 492.076V486.711C948.877 504.312 971.377 513.122 992.856 513.122C1002.65 513.122 1010.34 511.149 1015.94 507.168C1021.55 503.205 1024.36 498.203 1024.36 492.18C1024.36 485.672 1020.69 480.237 1013.35 475.876C1006.01 471.514 994.673 467.516 979.356 463.864C960.404 459.26 946.558 453.272 937.783 445.899C929.025 438.526 924.646 428.972 924.646 417.22C924.646 402.941 930.41 391.397 941.937 382.605C953.464 373.795 967.76 369.399 984.808 369.399C996.508 369.399 1008 371.164 1019.27 374.712C1035.48 379.801 1046.61 394.72 1046.61 411.716V416.528C1038.08 410.505 1028.22 405.434 1017 401.297C1005.78 397.178 995.054 395.118 984.791 395.118C975.635 395.118 967.968 397.143 961.823 401.193C955.662 405.243 952.581 410.505 952.581 417.012C952.581 423.364 956.164 428.245 963.364 431.655C970.546 435.064 982.437 438.682 999.018 442.472C1034.55 450.884 1052.31 467.447 1052.31 492.197C1052.31 507.272 1046.46 519.041 1034.78 527.539C1023.09 536.02 1008.73 540.105 991.679 539.776Z" fill="url(#paint6_linear_692_675)"/>
<path d="M807.196 182.008C795.306 189.935 779.261 187.044 770.884 175.465L702.45 80.8095C690.992 64.9557 672.611 55.5576 653.054 55.5576C628.079 55.5576 604.627 67.5345 590.002 87.7845L510.559 197.671L505.731 204.352C483.594 234.986 448.113 253.125 410.331 253.125H405.934H404.134C366.767 253.125 329.261 238.708 307.367 208.419L237.756 107.481C229.794 96.473 232.979 81.1903 243.034 72.0864C258.629 58.7422 277.2 66.7903 286.477 79.6326L349.148 168.49C362.406 186.819 383.642 197.671 406.263 197.671H414.709C437.14 194.21 447.542 187.269 459.813 174.306L543.721 55.5749L544.5 54.4672C568.575 20.3884 607.707 0.121094 649.436 0.121094C687.358 0.121094 722.977 18.3288 745.182 49.0499L814.033 144.294C822.842 156.531 819.744 173.648 807.196 182.008Z" fill="url(#paint7_linear_692_675)"/>
<defs>
<linearGradient id="paint0_linear_692_675" x1="67.8512" y1="639.914" x2="67.8512" y2="249.547" gradientUnits="userSpaceOnUse">
<stop stop-color="#36C59E"/>
<stop offset="0.1039" stop-color="#35BEA1"/>
<stop offset="0.2588" stop-color="#32A9AA"/>
<stop offset="0.4457" stop-color="#2C88B8"/>
<stop offset="0.6576" stop-color="#255ACC"/>
<stop offset="0.8873" stop-color="#1C1FE5"/>
<stop offset="1" stop-color="#1700F2"/>
</linearGradient>
<linearGradient id="paint1_linear_692_675" x1="228.5" y1="639.913" x2="228.5" y2="249.547" gradientUnits="userSpaceOnUse">
<stop stop-color="#36C59E"/>
<stop offset="0.1039" stop-color="#35BEA1"/>
<stop offset="0.2588" stop-color="#32A9AA"/>
<stop offset="0.4457" stop-color="#2C88B8"/>
<stop offset="0.6576" stop-color="#255ACC"/>
<stop offset="0.8873" stop-color="#1C1FE5"/>
<stop offset="1" stop-color="#1700F2"/>
</linearGradient>
<linearGradient id="paint2_linear_692_675" x1="510.671" y1="639.913" x2="510.671" y2="249.547" gradientUnits="userSpaceOnUse">
<stop stop-color="#36C59E"/>
<stop offset="0.1039" stop-color="#35BEA1"/>
<stop offset="0.2588" stop-color="#32A9AA"/>
<stop offset="0.4457" stop-color="#2C88B8"/>
<stop offset="0.6576" stop-color="#255ACC"/>
<stop offset="0.8873" stop-color="#1C1FE5"/>
<stop offset="1" stop-color="#1700F2"/>
</linearGradient>
<linearGradient id="paint3_linear_692_675" x1="631.874" y1="639.914" x2="631.874" y2="249.547" gradientUnits="userSpaceOnUse">
<stop stop-color="#36C59E"/>
<stop offset="0.1039" stop-color="#35BEA1"/>
<stop offset="0.2588" stop-color="#32A9AA"/>
<stop offset="0.4457" stop-color="#2C88B8"/>
<stop offset="0.6576" stop-color="#255ACC"/>
<stop offset="0.8873" stop-color="#1C1FE5"/>
<stop offset="1" stop-color="#1700F2"/>
</linearGradient>
<linearGradient id="paint4_linear_692_675" x1="819.988" y1="639.914" x2="819.988" y2="249.547" gradientUnits="userSpaceOnUse">
<stop stop-color="#36C59E"/>
<stop offset="0.1039" stop-color="#35BEA1"/>
<stop offset="0.2588" stop-color="#32A9AA"/>
<stop offset="0.4457" stop-color="#2C88B8"/>
<stop offset="0.6576" stop-color="#255ACC"/>
<stop offset="0.8873" stop-color="#1C1FE5"/>
<stop offset="1" stop-color="#1700F2"/>
</linearGradient>
<linearGradient id="paint5_linear_692_675" x1="400.664" y1="639.914" x2="400.664" y2="249.548" gradientUnits="userSpaceOnUse">
<stop stop-color="#36C59E"/>
<stop offset="0.1039" stop-color="#35BEA1"/>
<stop offset="0.2588" stop-color="#32A9AA"/>
<stop offset="0.4457" stop-color="#2C88B8"/>
<stop offset="0.6576" stop-color="#255ACC"/>
<stop offset="0.8873" stop-color="#1C1FE5"/>
<stop offset="1" stop-color="#1700F2"/>
</linearGradient>
<linearGradient id="paint6_linear_692_675" x1="988.476" y1="639.914" x2="988.476" y2="249.547" gradientUnits="userSpaceOnUse">
<stop stop-color="#36C59E"/>
<stop offset="0.1039" stop-color="#35BEA1"/>
<stop offset="0.2588" stop-color="#32A9AA"/>
<stop offset="0.4457" stop-color="#2C88B8"/>
<stop offset="0.6576" stop-color="#255ACC"/>
<stop offset="0.8873" stop-color="#1C1FE5"/>
<stop offset="1" stop-color="#1700F2"/>
</linearGradient>
<linearGradient id="paint7_linear_692_675" x1="233.249" y1="126.622" x2="819.043" y2="126.622" gradientUnits="userSpaceOnUse">
<stop stop-color="#36C59E"/>
<stop offset="0.1039" stop-color="#35BEA1"/>
<stop offset="0.2588" stop-color="#32A9AA"/>
<stop offset="0.4457" stop-color="#2C88B8"/>
<stop offset="0.6576" stop-color="#255ACC"/>
<stop offset="0.8873" stop-color="#1C1FE5"/>
<stop offset="1" stop-color="#1700F2"/>
</linearGradient>
</defs>
</svg>
