<svg width="38" height="48" viewBox="0 0 38 48" fill="none" xmlns="http://www.w3.org/2000/svg">
<path d="M37.0672 27.5025C36.2993 28.0038 35.2631 27.821 34.722 27.0888L30.3021 21.1027C29.5621 20.1002 28.375 19.5058 27.1119 19.5058C25.4988 19.5058 23.9842 20.2632 23.0396 21.5438L17.9088 28.4931L17.5969 28.9156C16.1672 30.8529 13.8756 32 11.4354 32H11.1515H11.0352C8.62184 32 6.19951 31.0882 4.78545 29.1728L0.289546 22.7894C-0.224656 22.0933 -0.0189733 21.1268 0.630485 20.5511C1.63765 19.7072 2.83708 20.2162 3.43623 21.0283L7.4839 26.6477C8.34015 27.8068 9.71173 28.4931 11.1727 28.4931H11.7182C13.1669 28.2742 13.8388 27.8353 14.6313 27.0155L20.0505 19.5069L20.1008 19.4369C21.6557 17.2817 24.1831 16 26.8782 16C29.3274 16 31.6279 17.1515 33.0621 19.0943L37.5088 25.1175C38.0778 25.8914 37.8777 26.9739 37.0672 27.5025Z" fill="url(#paint0_linear_611_724)"/>
<defs>
<linearGradient id="paint0_linear_611_724" x1="-0.00149176" y1="23.9999" x2="37.8324" y2="23.9999" gradientUnits="userSpaceOnUse">
<stop stop-color="#36C59E"/>
<stop offset="0.1039" stop-color="#35BEA1"/>
<stop offset="0.2588" stop-color="#32A9AA"/>
<stop offset="0.4457" stop-color="#2C88B8"/>
<stop offset="0.6576" stop-color="#255ACC"/>
<stop offset="0.8873" stop-color="#1C1FE5"/>
<stop offset="1" stop-color="#1700F2"/>
</linearGradient>
</defs>
</svg>
