<svg width="250" height="83" viewBox="0 0 250 83" fill="none" xmlns="http://www.w3.org/2000/svg">
<g clip-path="url(#clip0_541_2177)">
<path d="M46.4826 27.0598C42.373 27.0598 39.0315 23.7183 39.0315 19.5989C39.0315 15.4795 42.373 12.1429 46.4826 12.1429C50.6068 12.1429 53.9434 15.4844 53.9434 19.5989C53.9483 23.7232 50.6068 27.0598 46.4826 27.0598ZM85.2154 27.9991L64.5794 7.71532C59.5746 2.79849 53.0432 0.156618 46.4826 0.0930176C39.9366 0.161511 33.4004 2.79849 28.4004 7.71532L7.7497 27.9991C-2.3775 37.9551 -2.3775 54.0901 7.7497 64.0412L10.3769 66.6048C15.0051 71.1694 39.1783 81.5803 41.3456 82.456V43.0676C41.3456 41.8641 40.4992 40.778 39.3544 40.3327L26.4777 35.3034C25.4063 36.2036 24.0315 36.7466 22.51 36.7466C19.1098 36.7466 16.3358 33.9776 16.3358 30.5627C16.3358 27.1478 19.1098 24.3836 22.51 24.3836C25.6802 24.3836 28.2585 26.7466 28.645 29.8044L41.1841 34.7016C42.8818 35.367 44.6822 35.7095 46.4777 35.7339C48.2976 35.7095 50.0931 35.367 51.7957 34.7016L64.3201 29.8044C64.692 26.7466 67.2996 24.3836 70.4552 24.3836C73.8652 24.3836 76.6391 27.1478 76.6391 30.5627C76.6391 33.9776 73.8652 36.7466 70.4552 36.7466C68.9483 36.7466 67.5491 36.1987 66.4875 35.3034L53.6108 40.3327C52.4757 40.778 51.6342 41.8641 51.6342 43.0676V82.456C53.7918 81.5803 77.9503 71.1694 82.6029 66.6048L85.2057 64.0412C95.3427 54.0852 95.3427 37.9502 85.2154 27.9991Z" fill="#7EBA34"/>
<path d="M118.812 42.9209H123.102V16.0813H118.812V42.9209ZM238.146 28.6645L249.78 42.9257H244.682L234.208 29.9854V27.5148L244.492 16.0862H249.423L238.146 28.6645ZM232.701 42.9209H228.396V16.0813H232.701V42.9209ZM219.477 24.2809C219.477 22.9551 219.066 21.8935 218.249 21.1009C217.417 20.3034 216.189 19.9071 214.536 19.9071H209.002V28.8259H214.418C216.023 28.8259 217.251 28.415 218.141 27.5931C219.041 26.7711 219.477 25.6655 219.477 24.2809ZM223.777 24.2809C223.777 26.14 223.244 27.7496 222.187 29.1244C221.126 30.4893 219.702 31.4531 217.921 32.0109L224.262 42.9209H219.633L213.665 32.6469H208.997V42.9209H204.692V16.0813H214.531C215.989 16.0813 217.305 16.2917 218.459 16.7173C219.604 17.143 220.583 17.73 221.365 18.4688C222.148 19.2173 222.74 20.0833 223.151 21.0813C223.572 22.0745 223.777 23.1459 223.777 24.2809ZM191.121 26.913L189.286 20.5432H189.213L187.383 26.913L185.397 32.6077H193.112L191.121 26.913ZM201.238 42.9209H196.776L194.423 36.3113H184.032L181.718 42.9209H177.27L187.06 16.0813H191.449L201.238 42.9209ZM173.376 24.6038C173.376 23.1704 172.941 22.0255 172.133 21.1743C171.316 20.3279 170.108 19.9023 168.542 19.9023H163.611V29.4619H168.313C169.893 29.4619 171.135 29.0314 172.036 28.1655C172.916 27.3044 173.376 26.1156 173.376 24.6038ZM177.667 24.6038C177.667 25.822 177.437 26.9571 177.006 28.0089C176.571 29.0608 175.945 29.9707 175.128 30.7535C174.33 31.5412 173.342 32.1576 172.187 32.6029C171.042 33.0529 169.751 33.278 168.317 33.278H163.616V42.916H159.301V16.0764H168.547C169.981 16.0764 171.258 16.2966 172.393 16.7369C173.528 17.1723 174.477 17.779 175.25 18.552C176.047 19.3201 176.649 20.2203 177.06 21.2574C177.461 22.2897 177.667 23.4101 177.667 24.6038ZM138.596 42.9209H134.306V19.8631L126.424 19.9023V16.0764H146.532V19.9023L138.601 19.8631V42.9209H138.596Z" fill="white"/>
<path d="M121.532 57.3143C120.328 57.3143 119.56 57.5931 119.56 58.645C119.56 59.325 119.937 59.7164 121.277 59.8094C122.897 59.9366 123.616 60.5187 123.616 61.7712C123.616 63.2096 122.52 63.7526 120.866 63.7526C120.265 63.7526 119.467 63.645 118.949 63.4786L119.144 62.8573C119.555 63.0138 120.323 63.1117 120.857 63.1117C122.05 63.1117 122.877 62.828 122.877 61.781C122.877 61.1107 122.505 60.5677 121.165 60.4698C119.545 60.3524 118.812 59.9072 118.812 58.6645C118.812 57.2164 119.868 56.6831 121.522 56.6831C122.114 56.6831 122.858 56.7908 123.386 56.9424L123.19 57.5735C122.882 57.4219 122.085 57.3143 121.532 57.3143ZM246.292 56.8446V63.0041H249.785V63.6156H245.587V56.8446H246.292ZM240.695 57.3876C240.206 58.5911 239.741 59.7653 239.315 60.9444H242.192C241.771 59.7996 241.356 58.5765 240.974 57.3876H240.695ZM242.403 61.5266H239.1C238.856 62.2164 238.626 62.9062 238.401 63.6156H237.711C238.484 61.3505 239.32 59.1097 240.269 56.8446H241.463C242.231 59.1244 243.185 61.7419 244.012 63.6156H243.224C242.955 62.9649 242.672 62.2653 242.403 61.5266ZM235.641 61.6929C235.641 60.8808 235.348 60.2741 234.653 60.2741H232.036V63.0334H234.687C235.411 63.0334 235.641 62.4806 235.641 61.6929ZM235.494 58.5324C235.494 57.8524 235.304 57.4268 234.594 57.4268H232.04V59.7017H234.594C235.294 59.7017 235.494 59.1391 235.494 58.5324ZM236.395 61.7027C236.395 62.9649 235.793 63.6156 234.707 63.6156H231.346V56.8446H234.594C235.95 56.8446 236.209 57.6029 236.209 58.4493C236.209 59.2565 236.072 59.8681 234.868 59.9757C236.15 60.0295 236.395 60.778 236.395 61.7027ZM223.821 60.2154C223.821 62.5735 224.413 63.1362 226.135 63.1362C227.872 63.1362 228.474 62.5735 228.474 60.2154C228.474 57.7301 227.877 57.2702 226.135 57.2702C224.413 57.2702 223.821 57.7301 223.821 60.2154ZM223.068 60.1958C223.068 57.4365 224.037 56.6782 226.14 56.6782C228.239 56.6782 229.218 57.4365 229.218 60.1958C229.218 62.9943 228.259 63.7526 226.14 63.7526C224.027 63.7526 223.068 62.9943 223.068 60.1958ZM218.298 56.8446V63.0041H221.796V63.6156H217.598V56.8446H218.298ZM214.589 60.5432H212.818V59.9806H215.294V63.5275C214.766 63.6939 213.826 63.7526 213.22 63.7526C211.126 63.7526 210.123 62.9258 210.123 60.1665C210.123 57.3974 211.121 56.6831 213.22 56.6831C213.826 56.6831 214.594 56.7908 215.113 56.9424L214.893 57.554C214.482 57.3974 213.758 57.3045 213.234 57.3045C211.522 57.3045 210.886 57.6812 210.886 60.1665C210.886 62.642 211.522 63.1313 213.234 63.1313C213.758 63.1313 214.301 63.0432 214.594 62.9649V60.5432H214.589ZM199.658 60.2154C199.658 62.5735 200.25 63.1362 201.972 63.1362C203.709 63.1362 204.315 62.5735 204.315 60.2154C204.315 57.7301 203.714 57.2702 201.972 57.2702C200.25 57.2702 199.658 57.7301 199.658 60.2154ZM198.9 60.1958C198.9 57.4365 199.873 56.6782 201.972 56.6782C204.081 56.6782 205.054 57.4365 205.054 60.1958C205.054 62.9943 204.095 63.7526 201.972 63.7526C199.863 63.7526 198.9 62.9943 198.9 60.1958ZM196.258 60.5432H194.492V59.9806H196.967V63.5275C196.439 63.6939 195.499 63.7526 194.893 63.7526C192.794 63.7526 191.786 62.9258 191.786 60.1665C191.786 57.3974 192.789 56.6831 194.893 56.6831C195.494 56.6831 196.258 56.7908 196.781 56.9424L196.561 57.554C196.155 57.3974 195.421 57.3045 194.903 57.3045C193.19 57.3045 192.544 57.6812 192.544 60.1665C192.544 62.642 193.185 63.1313 194.903 63.1313C195.421 63.1313 195.969 63.0432 196.258 62.9649V60.5432ZM182.451 56.8446V63.0041H185.954V63.6156H181.752V56.8446H182.451ZM176.859 57.3876C176.37 58.5911 175.905 59.7653 175.48 60.9444H178.357C177.941 59.7996 177.52 58.5765 177.143 57.3876H176.859ZM178.572 61.5266H175.269C175.025 62.2164 174.795 62.9062 174.57 63.6156H173.88C174.658 61.3505 175.49 59.1097 176.434 56.8446H177.628C178.391 59.1244 179.355 61.7419 180.172 63.6156H179.384C179.125 62.9649 178.846 62.2653 178.572 61.5266ZM171.082 56.6831C171.683 56.6831 172.451 56.7908 172.975 56.9424L172.75 57.5735C172.344 57.4072 171.615 57.3143 171.091 57.3143C169.384 57.3143 168.743 57.6812 168.743 60.1665C168.743 62.642 169.384 63.1117 171.091 63.1117C171.615 63.1117 172.344 63.0138 172.75 62.8573L172.975 63.4786C172.451 63.645 171.683 63.7526 171.082 63.7526C168.988 63.7526 167.98 62.9258 167.98 60.1665C167.98 57.3974 168.988 56.6831 171.082 56.6831ZM160.832 60.2154C160.832 62.5735 161.424 63.1362 163.146 63.1362C164.883 63.1362 165.48 62.5735 165.48 60.2154C165.48 57.7301 164.883 57.2702 163.146 57.2702C161.424 57.2702 160.832 57.7301 160.832 60.2154ZM160.079 60.1958C160.079 57.4365 161.047 56.6782 163.151 56.6782C165.255 56.6782 166.233 57.4365 166.233 60.1958C166.233 62.9943 165.269 63.7526 163.151 63.7526C161.038 63.7526 160.079 62.9943 160.079 60.1958ZM155.314 56.8446V63.0041H158.807V63.6156H154.609V56.8446H155.314ZM147.388 63.6156H146.674V57.4268H144.325V56.8446H149.726V57.4268H147.393V63.6156H147.388ZM138.856 57.4268V60.0687H141.126C141.918 60.0687 142.319 59.5745 142.319 58.7966C142.319 57.9111 141.913 57.4268 141.175 57.4268H138.856ZM141.179 56.8446C142.686 56.8446 143.097 57.7643 143.097 58.8064C143.097 59.7555 142.632 60.5921 141.15 60.5921C141.634 60.7585 142.491 61.9033 143.523 63.6107H142.652C141.571 61.7174 140.68 60.6753 140.167 60.6753H138.86V63.6107H138.161V56.8397H141.179V56.8446ZM133.264 57.3876C132.774 58.5911 132.314 59.7653 131.884 60.9444H134.761C134.34 59.7996 133.924 58.5765 133.547 57.3876H133.264ZM134.971 61.5266H131.669C131.429 62.2164 131.194 62.9062 130.974 63.6156H130.279C131.057 61.3505 131.894 59.1097 132.838 56.8446H134.032C134.8 59.1244 135.759 61.7419 136.576 63.6156H135.793C135.524 62.9649 135.245 62.2653 134.971 61.5266ZM127.897 63.6156H127.187V57.4268H124.839V56.8446H130.24V57.4268H127.897V63.6156Z" fill="white"/>
</g>
<defs>
<clipPath id="clip0_541_2177">
<rect width="250" height="82.681" fill="white"/>
</clipPath>
</defs>
</svg>
