<svg width="250" height="43" viewBox="0 0 250 43" fill="none" xmlns="http://www.w3.org/2000/svg">
<path d="M0 0.344482V41.8331H47.1864V36.9289H7.59902V30.7018C10.7883 32.2217 14.6641 33.0062 18.6162 33.0062H33.1277V18.6382H18.4636V23.5424H25.5287V28.1512H18.6162C12.5379 28.2005 7.59902 25.0623 7.59902 21.1396C7.52274 17.2168 12.3854 14.0294 18.4636 14.0294H18.6162H25.4572V9.12524H18.6162C14.6641 9.12524 10.7883 9.95902 7.59902 11.4297V5.20251H56.9926V18.6382H47.1911V9.12524H32.527V14.0294H39.5921V33.0585H47.1911V23.5393H56.9163V41.83H64.5154V0.344482H0Z" fill="#FBBA00"/>
<path d="M96.5803 3.63045H106.305V0.344583H96.1226C87.9181 0.344583 83.0508 3.7289 83.0508 8.23927C83.0508 12.7496 87.9134 16.134 96.1226 16.134H106.305V6.76863H95.5934V9.75913H100.38V12.8481H96.5803C92.3231 12.8481 89.2101 11.279 89.2101 8.23927C89.2101 5.19954 92.3279 3.63045 96.5803 3.63045ZM250 16.134H248.632L232.752 7.4055V16.134H226.827V0.341513H228.195L244.075 8.72845V0.390741H250V16.134ZM217.631 9.75913H206.842V12.8481H220.367V16.134H200.84V0.341513H220.367V3.62737H206.766V6.71633H217.554V9.75606H217.631V9.75913ZM177.662 3.63045V12.8512H181.461C185.719 12.8512 188.832 11.2821 188.832 8.24235C188.832 5.20262 185.79 3.63352 181.461 3.63352H177.662V3.63045ZM181.914 16.134H171.731V0.341513H181.914C190.119 0.341513 194.986 3.72583 194.986 8.2362C194.986 12.7496 190.123 16.134 181.914 16.134ZM144.529 16.134V0.341513H150.455V12.8481H163.751V16.134H144.529ZM132.373 8.23927C132.449 5.73795 129.331 3.67968 125.46 3.67968C121.585 3.63045 118.395 5.64258 118.395 8.14082V8.23927C118.319 10.7406 121.437 12.7989 125.313 12.7989C129.188 12.8481 132.378 10.836 132.378 8.33464V8.23927H132.373ZM112.16 8.23927C112.16 3.7289 117.099 0 125.308 0C133.512 0 138.527 3.72582 138.527 8.23927C138.527 12.7496 133.589 16.4785 125.308 16.4785C117.099 16.4785 112.16 12.7989 112.16 8.23927ZM217.631 35.4061H206.842V38.495H220.367V41.7809H200.84V25.9915H220.367V29.2774H206.766V32.3664H217.554L217.631 35.4061ZM177.128 37.1229C177.128 37.1229 180.699 38.6427 184.269 38.6427C186.548 38.6427 187.311 38.0551 187.311 37.3198C187.311 36.486 186.477 36.0953 182.753 35.4061C177.357 34.4246 174.244 33.1509 174.244 30.5511C174.244 27.6591 177.433 25.647 184.122 25.647C191.034 25.647 193.694 27.3145 193.694 27.3145L190.505 30.4035C188.607 29.5697 186.4 29.0805 184.122 29.0805C181.766 29.0805 181.08 29.5697 181.08 30.2589C181.08 31.0434 182.219 31.388 185.337 31.8772C191.11 32.8586 194.304 34.2308 194.304 36.8798C194.304 39.7719 191.187 42.1255 184.427 42.1255C177.438 42.1255 173.862 40.018 173.862 40.018L177.128 37.1229ZM144.529 35.0154V25.9915H150.455V34.9661C150.455 36.7814 152.205 38.4489 155.852 38.4489C159.575 38.4489 161.172 36.8306 161.172 34.9661V25.9915H167.098V34.9661C167.098 39.0365 162.84 42.1255 155.852 42.1255C148.939 42.1747 144.529 39.0858 144.529 35.0154ZM132.373 33.9354C132.449 31.4341 129.331 29.3759 125.46 29.3759C121.585 29.3266 118.395 31.3387 118.395 33.837V33.9354C118.319 36.4368 121.437 38.495 125.313 38.495C129.188 38.5443 132.378 36.5321 132.378 34.0308V33.9354H132.373ZM112.16 33.9354C112.16 29.4251 117.099 25.6962 125.308 25.6962C133.512 25.6962 138.527 29.422 138.527 33.9354C138.527 38.4458 133.512 42.1747 125.308 42.1747C117.099 42.1747 112.16 38.4489 112.16 33.9354ZM106.31 41.8332H100.385V35.6553H89.5152V41.8332H83.5895V25.9946H89.5152V32.6156H100.38V25.9946H106.305V41.8332H106.31Z" fill="#FBBA00"/>
</svg>
