<svg width="145" height="100" viewBox="0 0 145 100" fill="none" xmlns="http://www.w3.org/2000/svg">
<g clip-path="url(#clip0_541_2252)">
<path d="M92.2909 64.1055V87.6198C92.2909 90.2826 92.2052 92.154 92.0309 93.234C91.8538 94.3112 91.3395 95.4226 90.4909 96.5569C89.6338 97.6969 88.5081 98.5569 87.1081 99.1455C85.7138 99.734 84.0652 100.025 82.1652 100.025C80.0681 100.025 78.2138 99.6798 76.6024 98.9826C74.9938 98.2855 73.7909 97.3826 72.9967 96.2683C72.1995 95.1512 71.7281 93.974 71.5852 92.734C71.4395 91.4969 71.3652 88.894 71.3652 84.9255V64.1055H80.5167V90.4855C80.5167 92.0198 80.5967 93.0026 80.7681 93.4312C80.9309 93.8598 81.2681 94.0712 81.7738 94.0712C82.3567 94.0712 82.7281 93.8369 82.8938 93.3655C83.0595 92.8998 83.1452 91.7826 83.1452 90.0312V64.1083H92.2909V64.1055ZM144.442 77.5198H135.477V74.3883C135.477 72.414 135.391 71.1798 135.22 70.6826C135.051 70.1883 134.645 69.9397 134.008 69.9397C133.457 69.9397 133.08 70.1483 132.88 70.5769C132.682 71.0055 132.58 72.0969 132.58 73.8569V90.4026C132.58 91.9483 132.682 92.9655 132.88 93.4569C133.08 93.9455 133.48 94.1912 134.071 94.1912C134.725 94.1912 135.171 93.9169 135.402 93.3598C135.637 92.8083 135.754 91.7312 135.754 90.1226V86.0369H133.945V80.7969H144.442V99.3055H138.808L137.977 96.834C137.368 97.8998 136.597 98.6998 135.668 99.2312C134.737 99.7598 133.637 100.028 132.374 100.028C130.871 100.028 129.457 99.6655 128.145 98.934C126.828 98.1998 125.831 97.294 125.148 96.2198C124.468 95.1398 124.042 94.0083 123.871 92.8226C123.702 91.634 123.617 89.8569 123.617 87.4826V77.2426C123.617 73.9483 123.794 71.554 124.151 70.0683C124.505 68.5769 125.522 67.214 127.205 65.9683C128.888 64.7283 131.062 64.1083 133.734 64.1083C136.36 64.1083 138.537 64.6426 140.271 65.7255C142.002 66.8026 143.131 68.0855 143.657 69.5712C144.18 71.0512 144.442 73.2083 144.442 76.0312V77.5198ZM119.134 64.1055V100.025H110.945L106.091 83.694V100.025H98.2766V64.1055H106.091L111.328 80.2769V64.1055H119.134Z" fill="#EE7427"/>
<path d="M54.8997 55.6142C56.9625 51.4656 58.3682 45.9828 51.7025 40.0142L51.2082 39.5714L51.1568 40.2371C50.7368 45.7228 47.3397 48.3685 45.3482 49.4571C43.7797 50.3199 42.5511 50.8599 41.5625 51.2942C40.4511 51.7828 39.6482 52.1342 39.0168 52.6485C36.6568 54.3885 35.3482 57.0685 35.2768 58.8199C35.2568 59.3485 35.1254 59.9571 34.9854 60.5999C34.594 62.4171 34.1082 64.6771 35.8768 66.5456L36.1197 66.7999L36.3568 66.5428C39.3111 63.3399 41.7254 61.8485 43.9597 61.8485H43.9682C45.5825 61.8514 47.0939 62.6342 48.5797 64.2428C49.4739 66.4571 49.3282 68.4485 48.1139 70.6942C46.3797 73.9028 42.5854 75.6657 37.1797 75.7885C30.0368 74.9657 25.8539 70.8371 24.7511 63.5856C25.0911 58.2942 27.2139 51.8771 40.3797 44.4371C43.2397 43.0542 44.8568 40.8314 45.4682 37.4485C46.094 33.9885 45.2968 28.6742 41.1854 24.1342L40.8139 23.7228L40.6311 24.2485C39.3425 28.0028 36.9511 30.9371 33.3082 33.2342C33.2911 33.2228 33.2711 33.2171 33.2511 33.2056C33.6968 32.7171 34.0797 32.0685 34.4254 31.4885C34.6654 31.0828 34.894 30.6971 35.074 30.4914C38.7625 26.3399 41.5139 15.3714 28.4511 0.608503L27.9768 0.0742188L27.8797 0.779933C26.9111 7.72279 24.9711 13.7656 21.9425 19.2514C19.4511 23.7714 16.5625 27.9799 13.7711 32.0485C7.00252 41.9085 0.613953 51.2171 -0.0317611 64.1085C-0.488904 73.2114 2.06252 81.3171 7.33395 87.5428C13.314 95.0142 21.0597 99.0885 31.0197 100.006C31.814 100.08 32.6082 100.114 33.3997 100.114C43.8454 100.114 54.1311 93.9028 59.0082 84.4056C63.9111 74.8742 62.4082 64.3885 54.8997 55.6142Z" fill="#00A0DC"/>
</g>
<defs>
<clipPath id="clip0_541_2252">
<rect width="144.571" height="100" fill="white"/>
</clipPath>
</defs>
</svg>
