<svg width="131" height="100" viewBox="0 0 131 100" fill="none" xmlns="http://www.w3.org/2000/svg">
<path d="M63.6844 0C48.8947 0 38.002 9.39755 38.002 19.4437C38.002 24.6323 40.9273 29.004 44.6071 32.0325L44.8866 31.8426C41.9667 29.4301 39.3317 25.6472 39.3317 20.464C40.1024 9.47624 53.6573 3.28086 65.7007 3.28086C74.2272 3.28086 89.5406 5.25101 89.5406 19.5007C89.5406 26.9362 81.5922 36.6051 64.9137 36.6051C56.371 36.6051 49.7333 32.0298 49.7333 25.4572C49.7333 19.7639 54.1892 15.7123 60.8378 15.7123C62.6695 15.7123 64.3873 16.1411 65.6953 16.4966C62.9219 15.9973 58.6207 16.7083 56.3927 18.4586V28.0814H64.5609V17.1425C66.1023 17.4192 67.2964 17.9973 68.1186 18.5102V25.0393V28.0814H70.2462C68.5718 29.9593 65.4565 31.099 62.7591 30.6811V31.0827C70.5202 31.6933 73.8065 28.0135 73.8065 23.8724C73.8065 19.0013 69.2339 16.1411 64.5609 15.5549V8.36092H56.3927V15.6418C51.1064 16.7055 45.9314 19.848 45.9314 25.0475C45.9314 33.0556 57.1254 38.0163 66.8622 38.0163C81.6627 38.0163 93.0521 30.8629 93.0521 20.8249C93.0521 8.67028 76.6098 0 63.6844 0ZM91.1987 35.7937C91.5162 35.7829 91.5894 35.6526 91.5894 35.4871C91.5894 35.327 91.5162 35.2456 91.2475 35.2456H90.8459V35.7964H91.1987V35.7937ZM90.8459 36.1275V37.0556H90.5148V34.9091H91.2068C91.603 34.9091 92.01 35.0176 92.01 35.5034C92.01 35.7503 91.8554 35.9457 91.5704 36.0027V36.0135C91.8689 36.0732 91.9042 36.2035 91.9341 36.4342C91.9666 36.6404 91.9883 36.8629 92.0616 37.0583H91.6328C91.6111 36.9362 91.5759 36.8005 91.5596 36.6757C91.5379 36.4911 91.5379 36.3202 91.4375 36.2198C91.3588 36.1329 91.2475 36.1438 91.1308 36.1329H90.8459V36.1275ZM92.7373 36.0081C92.7373 35.1804 92.067 34.5074 91.2366 34.5074C90.4035 34.5074 89.7251 35.1831 89.7251 36.0081C89.7251 36.8439 90.4008 37.5169 91.2366 37.5169C92.067 37.5169 92.7373 36.8439 92.7373 36.0081ZM89.4049 36.0081C89.4049 35.0013 90.219 34.1845 91.2366 34.1845C92.2461 34.1845 93.0575 35.0013 93.0575 36.0081C93.0575 37.023 92.2434 37.8399 91.2366 37.8399C90.219 37.8399 89.4049 37.023 89.4049 36.0081ZM74.9409 24.1519C74.9409 20.6133 72.523 17.7802 68.1186 16.4097V8.36092H76.276V28.0814H73.7251C74.6234 26.8195 74.9409 25.384 74.9409 24.1519Z" fill="#393185"/>
<path d="M28.521 49.1399V77.186L30.6974 77.4763V79.1208H19.9159V77.4763L22.2361 77.186V64.4261H8.4586V77.1887L10.5862 77.479V79.1236H0V77.479L2.12754 77.1887V49.1399L0 48.8495V47.2538H10.5862V48.8495L8.4586 49.1399V61.1371H22.2361V49.1399L19.9159 48.8495V47.2538H30.6974V48.8495L28.521 49.1399ZM130.429 77.6717V79.1208H120.518V77.6717L122.499 77.3813V64.475C122.499 60.8956 121.194 59.3 118.488 59.3C117.232 59.3 115.248 60.171 113.799 61.186V77.3813L115.829 77.6717V79.1208H105.87V77.6717L107.9 77.3813V58.3312L105.87 58.0408V56.4451H113.796V59.5903C116.263 57.6066 118.629 56.0109 121.965 56.0109C126.412 56.0109 128.396 58.6215 128.396 63.7504V77.3841L130.429 77.6717ZM96.4667 67.859C96.4667 60.7029 94.3419 57.5578 90.909 57.5578C87.5739 57.5578 85.4463 60.5591 85.4463 67.859C85.4463 75.0611 87.5739 78.0571 90.909 78.0571C94.4857 78.0571 96.4667 75.205 96.4667 67.859ZM102.944 68.0028C102.944 75.0611 98.2089 79.7993 90.7625 79.7993C83.5603 79.7993 78.966 76.7056 78.966 68.0028C78.966 60.7002 83.7041 55.8156 91.1478 55.8156C98.4992 55.8156 102.944 60.2172 102.944 68.0028ZM71.1017 56.4451H76.4206V58.5727H71.1017V72.0625C71.1017 75.5415 71.8263 76.6541 74.9687 76.6541C76.1275 76.6541 77.1424 76.6541 78.1112 76.4125V77.9594C75.2591 78.9743 72.8412 79.4085 70.8113 79.4085C66.2686 79.4085 65.2048 77.3298 65.2048 73.3651V58.57H61.0474V56.4424H65.3487V51.7016L71.1017 49.9621V56.4451ZM49.1533 77.6717L51.1343 77.3813V48.0272L49.1533 47.7369V46.285H57.0312V77.3786L59.061 77.669V79.1181H49.1506V77.6717H49.1533ZM43.5441 49.2864C43.5441 51.4139 42.0949 53.0096 40.1112 53.0096C38.0814 53.0096 36.6811 51.5578 36.6811 49.4302C36.6811 47.3977 38.0814 45.802 40.1112 45.802C42.0922 45.8047 43.5441 47.4004 43.5441 49.2864ZM42.8195 77.3813L44.8494 77.6717V79.1208H34.9389V77.6717L36.9715 77.3813V58.1846L34.9389 57.8943V56.4424H42.8195V77.3813Z" fill="#393185"/>
<path d="M26.1895 93.091V99.8589H24.6182V93.091H22.1406V91.7368H28.526L28.7512 93.091H26.1895ZM105.525 96.7517V99.8589H103.94V96.7626L101.069 91.9132L102.713 91.6527L104.776 95.3135L106.778 91.7341H108.493L105.525 96.7517ZM98.0402 93.091V99.8589H96.4662V93.091H93.9886V91.7368H100.374L100.602 93.091H98.0402ZM91.1419 99.8589V91.7368H92.7267V99.8589H91.1419ZM87.3048 100C84.9221 100 83.4214 98.3393 83.4214 95.8101C83.4214 93.2918 84.9574 91.5957 87.3536 91.5957C88.2817 91.5957 88.9981 91.8074 89.606 92.1846L89.3807 93.6554C88.8434 93.2565 88.2139 92.9363 87.416 92.9363C85.9262 92.9363 85.0334 94.0435 85.0334 95.7965C85.0334 97.5631 85.9642 98.6459 87.4404 98.6459C88.2138 98.6459 88.895 98.3637 89.5246 97.9403L89.739 99.3053C89.0904 99.7178 88.2464 100 87.3048 100ZM77.511 93.091V99.8589H75.9398V93.091H73.4622V91.7368H79.8475L80.0727 93.091H77.511ZM70.933 99.8589L67.0605 94.2687V99.8589H65.5951V91.7368H67.085L70.7783 97.0557V91.7368H72.2437V99.8589H70.933ZM59.3862 99.8589V91.7368H64.1623V93.0557H60.9466V94.9987H63.4242L63.6386 96.304H60.9466V98.5401H64.2817V99.8589H59.3862ZM56.7403 99.9403L53.4757 95.9023V99.8562H51.8909V91.7341H53.4757V95.2999L56.4418 91.7341H58.336L55.047 95.536L58.4771 99.6446L56.7403 99.9403ZM48.5667 99.8589V96.3393H45.0768V99.8589H43.492V91.7368H45.0768V94.9499H48.5667V91.7368H50.1515V99.8589H48.5667ZM39.3808 99.9539C38.3794 99.9539 37.5219 99.7314 36.7946 99.3895L37.0334 97.9648C37.7254 98.3664 38.5829 98.6839 39.4052 98.6839C40.1325 98.6839 40.6318 98.342 40.6318 97.6961C40.6318 97.0964 40.3469 96.8494 39.1555 96.342C37.5599 95.6934 36.9167 95.1778 36.9167 93.9159C36.9167 92.4804 38.0375 91.6445 39.5734 91.6445C40.5015 91.6445 41.1474 91.8345 41.7417 92.1384L41.5029 93.5496C40.9059 93.1615 40.2057 92.9146 39.5626 92.9146C38.7756 92.9146 38.431 93.2918 38.431 93.7857C38.431 94.304 38.6942 94.5509 39.8367 95.0204C41.5273 95.7042 42.1488 96.2796 42.1488 97.5387C42.1433 99.1289 40.9656 99.9539 39.3808 99.9539ZM31.3238 91.7015H33.0036L36.0185 99.6581L34.4337 99.9403L33.6467 97.7992H30.5368L29.8231 99.8589H28.2383L31.3238 91.7015ZM30.9683 96.5265H33.2071L32.0999 93.384L30.9683 96.5265Z" fill="#393185"/>
</svg>
