<svg width="112" height="100" viewBox="0 0 112 100" fill="none" xmlns="http://www.w3.org/2000/svg">
<path d="M98.566 0.357503C98.566 0.328758 98.6731 0.221618 98.8038 0.119704C99.0207 -0.0501516 99.0259 -0.04493 98.8561 0.171963C98.6784 0.396695 98.566 0.469869 98.566 0.357503ZM13.7165 1.71373C12.8594 0.853998 12.099 0.19026 12.0258 0.234684C11.9526 0.279108 11.9369 0.245135 11.9892 0.1589C12.0415 0.0726656 12.099 0.00210857 12.1146 0.00210857C12.1303 0.00210857 12.8777 0.739024 13.7766 1.63795C14.6755 2.5395 15.3785 3.27379 15.3419 3.27379C15.3053 3.27379 14.5736 2.57085 13.7165 1.71373ZM91.1995 7.57245C92.9608 5.80856 94.4346 4.3661 94.4712 4.3661C94.5078 4.3661 93.0967 5.80856 91.3354 7.57245C89.5741 9.33634 88.1003 10.7788 88.0637 10.7788C88.0271 10.7788 89.4382 9.33372 91.1995 7.57245ZM22.5751 10.4025L20.1893 7.9801L22.6117 10.3659C23.9444 11.6777 25.0341 12.7674 25.0341 12.7883C25.0341 12.885 24.7937 12.6524 22.5751 10.4025ZM25.2902 13.1307C25.1204 12.9138 25.1256 12.9085 25.3425 13.0784C25.4731 13.1803 25.5803 13.2901 25.5803 13.3162C25.5803 13.4312 25.4679 13.358 25.2902 13.1307ZM80.6266 18.0094C82.1997 16.4337 83.5194 15.1454 83.5586 15.1454C83.5952 15.1454 82.3382 16.4337 80.7651 18.0094C79.192 19.5852 77.8723 20.8735 77.8331 20.8735C77.7939 20.8735 79.0509 19.5852 80.6266 18.0094ZM89.8642 22.7105C90.068 22.4962 90.2588 22.3473 90.2901 22.3813C90.3189 22.4152 90.1542 22.5903 89.919 22.7706L89.4931 23.0999L89.8642 22.7105ZM21.2686 22.8856L21.0099 22.5799L21.3156 22.8386C21.603 23.0816 21.6841 23.1913 21.5743 23.1913C21.5508 23.1913 21.4123 23.0528 21.2686 22.8856ZM33.2865 20.9754L30.9686 18.6209L33.3231 20.9388C35.5103 23.092 35.7377 23.3272 35.641 23.3272C35.6201 23.3298 34.5591 22.2689 33.2865 20.9754ZM88.7431 23.6852C88.7431 23.6565 88.8503 23.5493 88.9809 23.4474C89.1978 23.2776 89.203 23.2828 89.0332 23.4997C88.8555 23.727 88.7431 23.7976 88.7431 23.6852ZM22.225 23.7035L21.9663 23.3978L22.272 23.6565C22.5595 23.8995 22.6405 24.0093 22.5307 24.0093C22.5046 24.0119 22.3661 23.8734 22.225 23.7035ZM87.7893 24.5058C87.7893 24.477 87.8964 24.3699 88.0271 24.268C88.244 24.0981 88.2492 24.1033 88.0794 24.3202C87.9017 24.545 87.7893 24.6181 87.7893 24.5058ZM73.7357 24.7775C73.7357 24.7488 73.8428 24.6416 73.9735 24.5397C74.1904 24.3699 74.1956 24.3751 74.0258 24.592C73.8481 24.8167 73.7357 24.8899 73.7357 24.7775ZM23.1788 24.5214L22.9201 24.2157L23.2258 24.4744C23.5133 24.7174 23.5943 24.8272 23.4845 24.8272C23.461 24.8298 23.3225 24.6913 23.1788 24.5214ZM86.9714 25.1695C87.1465 24.9814 87.3216 24.8272 87.3608 24.8272C87.3999 24.8272 87.285 24.9814 87.1073 25.1695C86.9322 25.3577 86.7571 25.5118 86.7179 25.5118C86.6787 25.5118 86.7937 25.3577 86.9714 25.1695ZM24.1326 25.342L23.8739 25.0362L24.1796 25.2949C24.4671 25.538 24.5481 25.6477 24.4383 25.6477C24.4148 25.6477 24.2763 25.5092 24.1326 25.342ZM86.0829 25.9195C86.2188 25.7705 86.3599 25.6477 86.3991 25.6477C86.4357 25.6477 86.3573 25.7705 86.2214 25.9195C86.0855 26.0684 85.9444 26.1913 85.9052 26.1913C85.866 26.1939 85.947 26.0711 86.0829 25.9195ZM25.089 26.1599L24.8303 25.8542L25.136 26.1129C25.4235 26.3559 25.5045 26.4656 25.3947 26.4656C25.3686 26.4656 25.2327 26.3271 25.089 26.1599ZM84.9932 26.8759C85.1291 26.727 85.2702 26.6041 85.3094 26.6041C85.346 26.6041 85.2676 26.727 85.1317 26.8759C84.9958 27.0249 84.8547 27.1477 84.8155 27.1477C84.7763 27.1477 84.8573 27.0249 84.9932 26.8759ZM26.0428 26.9778L25.7841 26.6721L26.0898 26.9308C26.3773 27.1738 26.4583 27.2836 26.3486 27.2836C26.325 27.2862 26.1865 27.1477 26.0428 26.9778ZM83.9689 27.7618C84.1439 27.5736 84.319 27.4195 84.3582 27.4195C84.3948 27.4195 84.2824 27.5736 84.1047 27.7618C83.9297 27.9499 83.7546 28.1041 83.7154 28.1041C83.6788 28.1041 83.7938 27.9499 83.9689 27.7618ZM26.9992 27.7957L26.7405 27.49L27.0463 27.7487C27.3337 27.9917 27.4147 28.1015 27.305 28.1015C27.2788 28.1041 27.1403 27.9656 26.9992 27.7957ZM83.083 28.5118C83.2189 28.3628 83.36 28.24 83.3992 28.24C83.4358 28.24 83.3574 28.3628 83.2215 28.5118C83.0856 28.6607 82.9445 28.7835 82.9053 28.7835C82.8661 28.7861 82.9471 28.6633 83.083 28.5118ZM28.0236 28.6842L27.6917 28.3079L28.068 28.6398C28.4182 28.9481 28.507 29.0605 28.3999 29.0605C28.3764 29.0579 28.2065 28.8907 28.0236 28.6842ZM82.2625 29.1938C82.3983 29.0448 82.5395 28.922 82.5787 28.922C82.6152 28.922 82.5369 29.0448 82.401 29.1938C82.2651 29.3427 82.124 29.4656 82.0848 29.4656C82.0482 29.4682 82.1266 29.3453 82.2625 29.1938ZM28.9722 29.5021C28.8023 29.2853 28.8075 29.28 29.0244 29.4499C29.2518 29.6276 29.325 29.7399 29.2126 29.7399C29.1838 29.7399 29.0767 29.6328 28.9722 29.5021ZM41.7401 29.2983L41.2018 28.7182L41.7819 29.2565C42.3202 29.7582 42.4248 29.8758 42.3202 29.8758C42.2967 29.8758 42.0354 29.6171 41.7401 29.2983ZM81.1728 30.1502C81.3087 30.0013 81.4498 29.8784 81.489 29.8784C81.5282 29.8784 81.4472 30.0013 81.3113 30.1502C81.1754 30.2992 81.0343 30.422 80.9951 30.422C80.9559 30.422 81.0369 30.2992 81.1728 30.1502ZM29.9286 30.3201C29.7587 30.1032 29.764 30.0979 29.9809 30.2678C30.2082 30.4455 30.2814 30.5579 30.169 30.5579C30.1376 30.5579 30.0305 30.4507 29.9286 30.3201ZM80.2843 30.9002C80.4594 30.712 80.6345 30.5579 80.6737 30.5579C80.7103 30.5579 80.5979 30.712 80.4202 30.9002C80.2451 31.0883 80.07 31.2425 80.0308 31.2425C79.9969 31.2425 80.1092 31.0883 80.2843 30.9002ZM70.3255 28.172C72.0136 26.4839 73.4247 25.1016 73.4613 25.1016C73.4979 25.1016 72.1495 26.4839 70.4614 28.172C68.7733 29.8601 67.3622 31.2425 67.3256 31.2425C67.289 31.2425 68.64 29.8601 70.3255 28.172ZM30.8824 31.138C30.7125 30.9211 30.7178 30.9159 30.9347 31.0857C31.162 31.2634 31.2352 31.3758 31.1228 31.3758C31.0915 31.3784 30.9843 31.2713 30.8824 31.138ZM66.8474 31.6502C66.9833 31.5012 67.1244 31.3784 67.1636 31.3784C67.2002 31.3784 67.1218 31.5012 66.9859 31.6502C66.85 31.7991 66.7089 31.9219 66.6697 31.9219C66.6305 31.9245 66.7115 31.8017 66.8474 31.6502ZM79.3305 31.7181C79.5056 31.53 79.6807 31.3758 79.7199 31.3758C79.7564 31.3758 79.6441 31.53 79.469 31.7181C79.2939 31.9063 79.1188 32.0604 79.0796 32.0604C79.0404 32.0604 79.1528 31.9063 79.3305 31.7181ZM31.7735 31.888L31.5148 31.5822L31.8205 31.8409C31.9904 31.9846 32.1263 32.1231 32.1263 32.1467C32.1263 32.259 32.0165 32.178 31.7735 31.888ZM78.3061 32.6066C78.442 32.4576 78.5831 32.3348 78.6223 32.3348C78.6589 32.3348 78.5805 32.4576 78.4446 32.6066C78.3087 32.7555 78.1676 32.8783 78.1284 32.8783C78.0918 32.8783 78.1702 32.7555 78.3061 32.6066ZM32.8005 32.7764L32.4686 32.4001L32.8449 32.732C33.195 33.0404 33.2813 33.1527 33.1768 33.1527C33.1506 33.1501 32.9808 32.9829 32.8005 32.7764ZM77.4203 33.3566C77.5954 33.1684 77.7704 33.0142 77.8096 33.0142C77.8462 33.0142 77.7338 33.1684 77.5561 33.3566C77.3811 33.5447 77.206 33.6989 77.1668 33.6989C77.1302 33.6963 77.2452 33.5447 77.4203 33.3566ZM33.7464 33.5944C33.5766 33.3775 33.5818 33.3722 33.7987 33.5421C34.026 33.7198 34.0992 33.8322 33.9868 33.8322C33.9581 33.8322 33.851 33.725 33.7464 33.5944ZM44.5414 32.0944L42.4274 29.9464L44.5754 32.0604C46.5718 34.0229 46.7861 34.245 46.6894 34.245C46.6685 34.2424 45.7017 33.2756 44.5414 32.0944ZM76.3985 34.2424C76.5344 34.0935 76.6755 33.9707 76.7147 33.9707C76.7513 33.9707 76.6729 34.0935 76.537 34.2424C76.4011 34.3914 76.26 34.5142 76.2208 34.5142C76.1816 34.5142 76.2626 34.394 76.3985 34.2424ZM34.6375 34.3443L34.3788 34.0386L34.6846 34.2973C34.8544 34.441 34.9903 34.5795 34.9903 34.603C34.9929 34.7128 34.8831 34.6344 34.6375 34.3443ZM63.2334 35.1466C63.2334 35.1178 63.3405 35.0107 63.4712 34.9088C63.6881 34.7389 63.6933 34.7442 63.5235 34.961C63.3432 35.1858 63.2334 35.2589 63.2334 35.1466ZM75.4421 35.0603C75.578 34.9114 75.7191 34.7886 75.7583 34.7886C75.7949 34.7886 75.7165 34.9114 75.5806 35.0603C75.4447 35.2093 75.3036 35.3321 75.2644 35.3321C75.2252 35.3347 75.3062 35.2119 75.4421 35.0603ZM35.6567 35.2328C35.4868 35.0159 35.492 35.0107 35.7089 35.1805C35.9363 35.3582 36.0094 35.4706 35.8971 35.4706C35.8683 35.4706 35.7612 35.3635 35.6567 35.2328ZM62.5514 35.8286C62.5514 35.7999 62.6585 35.6927 62.7892 35.5908C63.0061 35.421 63.0113 35.4262 62.8414 35.6431C62.6611 35.8678 62.5514 35.941 62.5514 35.8286ZM74.4177 35.9645C74.4177 35.9358 74.5249 35.8286 74.6555 35.7267C74.8724 35.5568 74.8777 35.5621 74.7078 35.779C74.5301 36.0037 74.4177 36.0769 74.4177 35.9645ZM36.749 36.1866C36.5791 35.9697 36.5843 35.9645 36.8012 36.1344C37.0286 36.312 37.1017 36.4244 36.9894 36.4244C36.958 36.4244 36.8509 36.3173 36.749 36.1866ZM73.5319 36.6988C73.6678 36.5498 73.8089 36.427 73.8481 36.427C73.8846 36.427 73.8063 36.5498 73.6704 36.6988C73.5345 36.8477 73.3934 36.9706 73.3542 36.9706C73.315 36.9706 73.396 36.8477 73.5319 36.6988ZM37.64 36.9366L37.3813 36.6309L37.6871 36.8896C37.8569 37.0333 37.9928 37.1718 37.9928 37.1953C37.9928 37.3051 37.8831 37.2267 37.64 36.9366ZM72.5781 37.5167C72.714 37.3678 72.8551 37.2449 72.8943 37.2449C72.9309 37.2449 72.8525 37.3678 72.7166 37.5167C72.5807 37.6657 72.4396 37.7885 72.4004 37.7885C72.3612 37.7885 72.4422 37.6657 72.5781 37.5167ZM38.5938 37.7545L38.3351 37.4488L38.6409 37.7075C38.8107 37.8512 38.9466 37.9897 38.9466 38.0132C38.9492 38.1256 38.8395 38.0446 38.5938 37.7545ZM71.6217 38.3346C71.7575 38.1857 71.8986 38.0629 71.9378 38.0629C71.9744 38.0629 71.896 38.1857 71.7601 38.3346C71.6243 38.4836 71.4832 38.6064 71.444 38.6064C71.4074 38.609 71.4858 38.4862 71.6217 38.3346ZM39.4849 38.5071L39.1531 38.1308L39.5294 38.4627C39.8795 38.771 39.9658 38.8834 39.8612 38.8834C39.8351 38.8808 39.6652 38.7109 39.4849 38.5071ZM70.6678 39.1526C70.8037 39.0036 70.9448 38.8808 70.984 38.8808C71.0206 38.8808 70.9422 39.0036 70.8064 39.1526C70.6705 39.3015 70.5293 39.4243 70.4902 39.4243C70.451 39.4243 70.532 39.3041 70.6678 39.1526ZM40.4387 39.325L40.1069 38.9487L40.4832 39.2806C40.6896 39.4635 40.8595 39.6308 40.8595 39.6569C40.8595 39.7614 40.7471 39.6752 40.4387 39.325ZM69.7114 39.9731C69.8473 39.8241 69.9884 39.7013 70.0276 39.7013C70.0668 39.7013 69.9858 39.8241 69.8499 39.9731C69.714 40.122 69.5729 40.2449 69.5337 40.2449C69.4972 40.2449 69.5755 40.122 69.7114 39.9731ZM41.3873 40.143C41.2175 39.9261 41.2227 39.9208 41.4396 40.0907C41.5702 40.1926 41.6774 40.3024 41.6774 40.3285C41.6774 40.4435 41.565 40.3703 41.3873 40.143ZM68.5538 41.0131C68.5538 40.9844 68.6609 40.8773 68.7916 40.7753C69.0085 40.6055 69.0137 40.6107 68.8439 40.8276C68.6636 41.0523 68.5538 41.1255 68.5538 41.0131ZM42.3411 40.9609C42.1713 40.744 42.1765 40.7388 42.3934 40.9086C42.5241 41.0105 42.6312 41.1203 42.6312 41.1464C42.6312 41.2614 42.5214 41.1882 42.3411 40.9609ZM84.3791 35.954V30.5709L86.663 28.7992L88.9469 27.0275L89.0358 28.2138C89.0828 28.8671 89.1299 31.5796 89.1377 34.2424L89.1508 39.0872L86.927 40.2135C85.704 40.8328 84.63 41.3398 84.5385 41.3398C84.4183 41.3372 84.3791 40.0254 84.3791 35.954ZM24.177 40.2841L21.8957 39.116V33.1553C21.8957 29.8758 21.9349 27.1555 21.982 27.1085C22.0656 27.0249 23.1422 27.8193 25.5437 29.7321L26.67 30.6284V35.975C26.67 38.9148 26.6229 41.3502 26.5654 41.3868C26.508 41.4208 25.4339 40.9243 24.177 40.2841ZM67.8038 41.6089C67.9397 41.46 68.0808 41.3372 68.12 41.3372C68.1566 41.3372 68.0782 41.46 67.9423 41.6089C67.8064 41.7579 67.6653 41.8807 67.6261 41.8807C67.5869 41.8833 67.6679 41.7605 67.8038 41.6089ZM43.3028 41.7788L42.9709 41.4025L43.3472 41.7344C43.6974 42.0427 43.7836 42.1551 43.6791 42.1551C43.6555 42.1551 43.4857 41.9852 43.3028 41.7788ZM66.5077 42.7953C66.5077 42.7718 66.7063 42.5732 66.9519 42.3511L67.3962 41.9513L66.9964 42.3955C66.6201 42.8084 66.5077 42.8998 66.5077 42.7953ZM44.2514 42.5993C44.0815 42.3824 44.0867 42.3772 44.3036 42.5471C44.4343 42.649 44.5414 42.7587 44.5414 42.7849C44.5414 42.8972 44.429 42.8267 44.2514 42.5993ZM20.597 34.1065C20.597 28.517 20.6127 26.2305 20.6336 29.0239C20.6545 31.82 20.6545 36.3931 20.6336 39.1865C20.6127 41.9826 20.597 39.6961 20.597 34.1065ZM78.3741 39.8451V35.2171L79.7721 34.1301C80.5404 33.5316 81.2172 33.0717 81.2721 33.1057C81.3296 33.1397 81.374 35.3896 81.374 38.1073V43.0488L79.9394 43.7622C79.1502 44.1542 78.476 44.4756 78.4394 44.4756C78.4054 44.4756 78.3741 42.3903 78.3741 39.8451ZM31.0627 43.7543L29.6725 43.041V38.0263C29.6725 35.2694 29.7091 33.0116 29.7561 33.0116C29.8032 33.0116 30.284 33.3644 30.8249 33.7956C31.3684 34.2267 32.0061 34.7285 32.2439 34.9088L32.6776 35.238L32.5966 39.8163C32.5522 42.3354 32.5026 44.4103 32.4843 44.4285C32.4686 44.4521 31.8284 44.1463 31.0627 43.7543ZM73.6834 46.83C73.639 46.7856 73.5998 45.0191 73.5998 42.9077C73.5998 40.0437 73.6442 39.0115 73.7697 38.8494C73.8637 38.7292 74.3498 38.319 74.8515 37.9401L75.7635 37.2476L75.8053 37.6186C75.8289 37.8225 75.8315 39.7745 75.8106 41.9539L75.7714 45.9154L74.7653 46.4119C74.2191 46.6889 73.7279 46.8771 73.6834 46.83ZM36.289 46.4276C35.7638 46.1585 35.2882 45.871 35.2333 45.7874C35.0661 45.5339 35.1053 37.3808 35.2751 37.3808C35.3561 37.3808 35.8422 37.7023 36.3596 38.0968L37.2977 38.8128L37.3056 42.8711C37.3108 45.1027 37.2977 46.9267 37.2794 46.9241C37.2585 46.9189 36.8143 46.6968 36.289 46.4276ZM70.0538 45.2177C70.0538 43.2317 70.1008 41.6063 70.1557 41.6037C70.2132 41.6011 70.532 41.3555 70.8664 41.0576C71.2009 40.7597 71.525 40.5166 71.5825 40.5166C71.6426 40.5166 71.6896 42.1969 71.6896 44.2535V47.9903L70.8717 48.4084L70.0538 48.8265V45.2177ZM40.1644 48.4241L39.4013 48.0373L39.3125 46.9842C39.1792 45.3954 39.2053 40.5166 39.3491 40.5166C39.5215 40.5166 40.8647 41.5906 40.9405 41.7892C40.9744 41.8781 40.9875 43.4956 40.9666 45.3797L40.93 48.8082L40.1644 48.4241ZM67.1897 47.0757V43.9477L67.7829 43.4617C68.1096 43.1951 68.4179 42.9756 68.4702 42.9756C68.5904 42.9756 68.5642 49.4301 68.444 49.5974C68.3317 49.7542 67.4928 50.2036 67.3178 50.2036C67.242 50.2036 67.1897 48.8866 67.1897 47.0757ZM43.0754 49.9345L42.4953 49.6706V46.3205C42.4953 44.4782 42.5345 42.9704 42.5842 42.9704C42.6338 42.9704 42.9395 43.1899 43.2662 43.4564L43.8594 43.9425V47.0705C43.8594 48.7899 43.8123 50.1984 43.7575 50.1958C43.7026 50.1984 43.3942 50.0808 43.0754 49.9345ZM84.4628 55.0746C84.4209 54.9126 84.4 52.4274 84.4157 49.5504L84.4445 44.3188L86.6265 43.3624C87.4052 43.02 88.1839 42.6803 88.9626 42.3406C89.075 42.291 89.1429 43.7648 89.2135 47.7734C89.2658 50.7968 89.2893 53.5772 89.2631 53.9509L89.2161 54.6303L87.3059 54.9335C86.5271 55.0563 85.7458 55.1791 84.9645 55.3019C84.6169 55.3542 84.5281 55.315 84.4628 55.0746ZM24.0098 54.9753C22.8103 54.761 21.8095 54.5833 21.7886 54.5781C21.6971 54.5572 21.7834 42.4269 21.8774 42.3694C21.9323 42.3354 22.5595 42.5654 23.2676 42.8842C23.9758 43.203 24.9845 43.642 25.5097 43.8615C26.035 44.081 26.5053 44.3162 26.555 44.3894C26.6046 44.4599 26.6282 44.7082 26.6073 44.9407C26.5864 45.1733 26.5628 47.6192 26.5524 50.3761C26.5367 54.2932 26.4949 55.3882 26.3616 55.3777C26.2702 55.3673 25.2118 55.1869 24.0098 54.9753ZM78.3741 51.7193V47.0966L78.6798 46.8954C78.8497 46.7856 79.4481 46.4982 80.0099 46.2551C80.5717 46.0147 81.1101 45.7848 81.2041 45.743C81.34 45.6855 81.374 46.7438 81.374 50.7812V55.8925L80.2477 56.1172C79.6284 56.2401 78.9542 56.3394 78.7478 56.3394H78.3715V51.7193H78.3741ZM31.1045 56.193C30.7282 56.1277 30.2369 56.0232 30.0122 55.9604L29.6019 55.8481L29.568 54.5624C29.5497 53.8542 29.581 51.5782 29.6359 49.5059L29.7378 45.7351L31.1359 46.3466L32.5339 46.9581V56.342L32.1576 56.3263C31.9564 56.3185 31.4782 56.2583 31.1045 56.193ZM73.6338 53.1356L73.6704 49.0774L74.6947 48.6279L75.7191 48.1784L75.787 51.9492C75.8628 56.1538 75.8367 56.8437 75.5937 56.9378C75.5022 56.9744 75.0162 57.0449 74.5144 57.0998L73.6024 57.1965L73.6338 53.1356ZM35.9467 57.0606C35.6854 57.0292 35.3927 56.9404 35.2987 56.862C35.168 56.7548 35.1288 55.7227 35.1288 52.5294C35.1288 50.2245 35.1628 48.3039 35.2072 48.2621C35.249 48.2202 35.7403 48.3744 36.2995 48.607L37.3134 49.0303V57.1625L36.8692 57.1416C36.6235 57.1285 36.2106 57.0919 35.9467 57.0606ZM70.0538 54.2645V50.6505L70.7541 50.3604C71.1382 50.201 71.5067 50.0704 71.572 50.0704C71.721 50.0704 71.7288 57.5336 71.5798 57.625C71.5197 57.6616 71.1513 57.7348 70.7619 57.787L70.0538 57.8811V54.2645ZM39.7672 57.7217L39.4248 57.6276L39.3883 53.849C39.3673 51.7689 39.3987 50.0678 39.4562 50.0678C39.5137 50.0678 39.8821 50.2063 40.2741 50.3735L40.9875 50.6819L40.9901 54.2619L40.9927 57.8419L40.5485 57.8289C40.3081 57.8236 39.9553 57.774 39.7672 57.7217ZM20.5944 51.91C20.5944 48.3823 20.6127 46.9215 20.6336 48.6619C20.6545 50.4022 20.6545 53.2872 20.6336 55.0746C20.6127 56.8594 20.5944 55.4352 20.5944 51.91ZM67.1662 58.2966C67.1401 58.2339 67.1192 57.9386 67.1244 57.6381C67.1296 57.3376 67.1453 55.9395 67.161 54.5284L67.1871 51.9649L67.7672 51.7141C68.086 51.5756 68.3892 51.4893 68.4414 51.5181C68.5172 51.5599 68.444 58.1346 68.3683 58.2025C68.2585 58.2992 67.2054 58.3828 67.1662 58.2966ZM42.9735 58.2705L42.5632 58.1842L42.5267 54.8002L42.4901 51.4161L42.7984 51.5128C42.9683 51.5651 43.2766 51.6931 43.4831 51.8003L43.8594 51.991V55.1948C43.8594 58.733 43.9352 58.4743 42.9735 58.2705ZM67.357 66.8417L67.0486 66.7162L67.0852 63.5412L67.1218 60.3662L67.7045 60.2879C68.0233 60.246 68.316 60.2408 68.3526 60.2774C68.3892 60.314 68.4179 61.8375 68.4179 63.6641V66.9828L68.0416 66.9749C67.8352 66.9697 67.5268 66.9122 67.357 66.8417ZM42.5005 63.6432L42.4875 60.3009H43.8594V66.8181L43.5536 66.8992C43.3838 66.9436 43.0807 66.9828 42.8794 66.9828L42.5136 66.9854L42.5005 63.6432ZM61.8249 67.3068C61.7726 67.2546 61.7308 60.327 61.7308 51.91V36.61L62.1071 36.2781L62.4834 35.9462L62.1777 36.2964L61.8719 36.6465V67.2572H66.1L66.1366 55.1504L66.1732 43.0436V55.1843V67.3251L64.0513 67.3617C62.8754 67.3826 61.8772 67.3591 61.8249 67.3068ZM44.8785 67.2258C44.8419 67.1291 44.8289 61.6493 44.8472 55.0458L44.8837 43.041L44.9177 55.1478L44.9517 67.2545H49.1798L49.2164 51.9754L49.2529 36.6962V52.0093V67.3225L47.1023 67.3591C45.4508 67.393 44.9308 67.3591 44.8785 67.2258ZM70.7358 67.4767L69.9858 67.3251L69.9963 63.7451C70.0015 61.7774 70.0328 60.1389 70.0642 60.1075C70.0956 60.0762 70.4614 60.0291 70.8743 60.003L71.6243 59.956L71.6608 63.698C71.6818 65.7572 71.6504 67.4819 71.5929 67.5315C71.5328 67.5864 71.1487 67.5577 70.7358 67.4767ZM39.4248 67.5525C39.3882 67.5159 39.3569 65.7677 39.3569 63.6693V59.8541L39.9893 59.9403C40.3368 59.9873 40.7053 60.0265 40.8072 60.0265C40.9588 60.0265 40.9927 60.6903 40.9927 63.6876V67.3486L40.2428 67.4845C39.8325 67.5577 39.464 67.589 39.4248 67.5525ZM74.6242 68.1613L73.6704 68.0071V59.6842L74.6738 59.5745C75.2252 59.5144 75.6982 59.4856 75.7217 59.5091C75.8315 59.6189 75.8106 68.2684 75.7008 68.2894C75.6329 68.305 75.1494 68.2449 74.6242 68.1613ZM35.1288 63.9907C35.1288 60.6093 35.168 59.5954 35.2987 59.5457C35.3927 59.5117 35.8683 59.53 36.357 59.5849L37.2428 59.6842L37.2794 63.8052L37.316 67.9261L36.8012 68.0568C36.519 68.13 36.0277 68.2293 35.7089 68.2789L35.1288 68.3704V63.9907ZM11.9474 68.1326C11.9526 67.9732 11.9866 67.9418 12.031 68.0489C12.0702 68.1482 12.065 68.2658 12.0206 68.3103C11.9735 68.3573 11.9422 68.2763 11.9474 68.1326ZM79.7199 69.0681L78.5387 68.8643L78.4472 66.664C78.3976 65.4541 78.3767 63.2956 78.4002 61.8714L78.4446 59.2792L79.8766 59.1224C80.6658 59.0361 81.3217 58.976 81.3374 58.9917C81.3531 59.0074 81.408 61.3331 81.4602 64.1632L81.5569 69.3085L81.2277 69.2928C81.0473 69.2771 80.3679 69.1778 79.7199 69.0681ZM29.568 64.1527L29.6046 59.0022L30.0148 59.0257C30.2396 59.0388 30.9007 59.0884 31.4834 59.1407L32.5418 59.2321L32.5052 64.0273L32.4686 68.8224L31.2404 69.0576C30.5662 69.1883 29.9051 69.2954 29.7718 69.298C29.5471 69.3033 29.534 68.9949 29.568 64.1527ZM86.8329 70.3381L84.583 69.9095L84.5464 64.286C84.5176 59.6711 84.5438 58.6625 84.6927 58.6625C84.792 58.6625 85.8425 58.5658 87.0263 58.4482C88.21 58.3306 89.1952 58.2548 89.2161 58.2783C89.3363 58.4116 89.3389 70.717 89.2187 70.7405C89.1455 70.7562 88.0715 70.5759 86.8329 70.3381ZM21.6527 64.5761C21.6919 61.1685 21.7572 58.3437 21.799 58.3018C21.8408 58.26 22.5098 58.2888 23.2833 58.3698C24.0568 58.4508 25.1047 58.5527 25.6116 58.5997L26.5315 58.6834V64.2572C26.5315 69.447 26.5158 69.8364 26.2937 69.9017C26.0768 69.967 22.7032 70.5968 21.9088 70.7222L21.5821 70.7745L21.6527 64.5761ZM9.07291 74.9817C9.07291 74.9529 9.18005 74.8458 9.31071 74.7439C9.5276 74.574 9.53283 74.5792 9.36298 74.7961C9.18267 75.0209 9.07291 75.094 9.07291 74.9817ZM8.32032 75.716C8.4562 75.567 8.59731 75.4442 8.63651 75.4442C8.67309 75.4442 8.5947 75.567 8.45882 75.716C8.32293 75.8649 8.18182 75.9877 8.14263 75.9877C8.10604 75.9877 8.18443 75.8649 8.32032 75.716ZM102.778 75.8858C102.609 75.6689 102.614 75.6637 102.831 75.8336C103.058 76.0113 103.131 76.1236 103.019 76.1236C102.987 76.1236 102.88 76.0165 102.778 75.8858ZM20.597 67.9392C20.597 63.0996 20.6153 61.1188 20.6362 63.5386C20.6571 65.9584 20.6571 69.9174 20.6362 72.3372C20.6127 74.7596 20.597 72.7788 20.597 67.9392ZM106.453 77.3962C106.552 77.357 106.669 77.3623 106.714 77.4067C106.758 77.4511 106.68 77.4851 106.534 77.4773C106.377 77.472 106.345 77.4381 106.453 77.3962ZM4.40841 77.3962C4.50771 77.357 4.6253 77.3623 4.66973 77.4067C4.71415 77.4511 4.63575 77.4851 4.48942 77.4773C4.33263 77.472 4.29866 77.4381 4.40841 77.3962ZM107.263 77.5347C107.357 77.4982 107.511 77.4982 107.605 77.5347C107.699 77.5713 107.623 77.6027 107.435 77.6027C107.247 77.6027 107.169 77.5739 107.263 77.5347ZM3.37882 77.5321C3.51209 77.4981 3.69502 77.5008 3.78909 77.5374C3.88055 77.5739 3.77342 77.6027 3.54868 77.6001C3.32134 77.5948 3.24555 77.5661 3.37882 77.5321ZM89.1168 77.7438C89.2083 77.6497 89.3206 77.6079 89.3624 77.6497C89.4043 77.6915 89.3285 77.7673 89.1952 77.8196C88.9992 77.8954 88.9835 77.8797 89.1168 77.7438ZM110.445 79.8657C110.453 79.7063 110.485 79.6749 110.529 79.7821C110.568 79.8814 110.563 79.999 110.519 80.0434C110.472 80.0904 110.44 80.0094 110.445 79.8657ZM88.4975 79.7402C88.5001 79.5155 88.5314 79.4397 88.5654 79.573C88.5994 79.7063 88.5968 79.8892 88.5602 79.9833C88.5236 80.0747 88.4949 79.965 88.4975 79.7402ZM22.4915 79.5364C22.4915 78.7499 22.515 78.4258 22.5412 78.8204C22.5699 79.215 22.5699 79.8578 22.5412 80.2524C22.515 80.6444 22.4915 80.323 22.4915 79.5364ZM55.4566 84.0363L0 83.9683L55.4906 83.9344C92.4172 83.9109 110.981 83.9474 110.981 84.0363C110.981 84.1121 110.965 84.1565 110.947 84.1382C110.929 84.1225 85.9575 84.0755 55.4566 84.0363ZM50.246 87.8907C51.0195 87.8672 52.2476 87.8672 52.9741 87.8907C53.7006 87.9142 53.0682 87.9351 51.5682 87.9351C50.0683 87.9351 49.4725 87.9168 50.246 87.8907ZM48.4716 87.9012C48.5709 87.862 48.6885 87.8672 48.7329 87.9116C48.7774 87.956 48.6963 87.99 48.5526 87.9822C48.3958 87.977 48.3645 87.943 48.4716 87.9012ZM8.28635 87.8933C8.56857 87.8646 9.02849 87.8646 9.31071 87.8933C9.59293 87.9221 9.36298 87.9456 8.79853 87.9456C8.2367 87.9482 8.00674 87.9221 8.28635 87.8933ZM1.67242 87.8959C1.91806 87.8646 2.28652 87.8672 2.49035 87.8986C2.69417 87.9299 2.49558 87.9534 2.0435 87.9534C1.59665 87.9508 1.42679 87.9247 1.67242 87.8959ZM0.859734 87.9012C0.959034 87.862 1.07663 87.8672 1.12105 87.9116C1.16547 87.956 1.08708 87.99 0.940741 87.9822C0.783951 87.977 0.752594 87.943 0.859734 87.9012ZM55.0463 88.267C54.9235 88.1886 54.9078 88.1337 55.0045 88.1337C55.0934 88.1337 55.2057 88.1938 55.2502 88.267C55.3573 88.4369 55.3077 88.4369 55.0463 88.267ZM48.0875 88.1965C47.9934 88.0815 47.9411 87.9613 47.9725 87.9299C48.0039 87.8986 48.1058 87.99 48.1972 88.139C48.3958 88.4525 48.3305 88.4891 48.0875 88.1965ZM0.61148 88.1965C0.517406 88.0815 0.465142 87.9613 0.4965 87.9299C0.527858 87.8986 0.629776 87.99 0.721236 88.139C0.919837 88.4525 0.854504 88.4891 0.61148 88.1965ZM3.20897 88.463C3.21158 88.3924 3.30304 88.2147 3.41279 88.071C3.52255 87.9247 3.61139 87.8646 3.60878 87.9351C3.60617 88.0057 3.51471 88.1834 3.40495 88.3271C3.2952 88.4735 3.20635 88.5336 3.20897 88.463ZM108.635 89.2652C108.734 89.226 108.851 89.2313 108.896 89.2757C108.94 89.3201 108.862 89.3541 108.716 89.3462C108.559 89.341 108.527 89.3071 108.635 89.2652ZM106.588 89.2652C106.688 89.226 106.805 89.2313 106.85 89.2757C106.894 89.3201 106.816 89.3541 106.669 89.3462C106.513 89.341 106.481 89.3071 106.588 89.2652ZM100.996 89.2652C101.096 89.226 101.213 89.2313 101.258 89.2757C101.302 89.3201 101.221 89.3541 101.077 89.3462C100.92 89.341 100.886 89.3071 100.996 89.2652ZM87.7553 89.2626C87.9252 89.2313 88.1996 89.2313 88.3694 89.2626C88.5393 89.294 88.4008 89.3227 88.0637 89.3227C87.724 89.3201 87.5855 89.294 87.7553 89.2626ZM76.9107 89.2626C77.044 89.2287 77.2269 89.2313 77.321 89.2679C77.4124 89.3044 77.3053 89.3332 77.0806 89.3306C76.8532 89.328 76.7774 89.2992 76.9107 89.2626ZM76.3044 89.2652C76.4037 89.226 76.5213 89.2313 76.5658 89.2757C76.6102 89.3201 76.5318 89.3541 76.3855 89.3462C76.2261 89.341 76.1947 89.3071 76.3044 89.2652ZM69.1339 89.2626C69.2672 89.2287 69.4501 89.2313 69.5442 89.2679C69.6356 89.3044 69.5285 89.3332 69.3038 89.3306C69.079 89.328 69.0033 89.2992 69.1339 89.2626ZM65.6532 89.2679C65.7473 89.2313 65.9014 89.2313 65.9955 89.2679C66.0896 89.3044 66.0138 89.3358 65.8257 89.3358C65.6375 89.3358 65.5591 89.3044 65.6532 89.2679ZM58.433 89.2652C58.5323 89.226 58.6499 89.2313 58.6943 89.2757C58.7387 89.3201 58.6577 89.3541 58.514 89.3462C58.3546 89.341 58.3232 89.3071 58.433 89.2652ZM37.8256 89.2626C37.9954 89.2313 38.2411 89.2313 38.3717 89.2652C38.5024 89.2992 38.3639 89.3253 38.0634 89.3253C37.7629 89.3227 37.6557 89.294 37.8256 89.2626ZM30.7387 89.2652C30.838 89.226 30.9556 89.2313 31 89.2757C31.0444 89.3201 30.966 89.3541 30.8197 89.3462C30.6603 89.341 30.6289 89.3071 30.7387 89.2652ZM23.0899 89.2626C23.2598 89.2313 23.5342 89.2313 23.704 89.2626C23.8739 89.294 23.7354 89.3227 23.3983 89.3227C23.0586 89.3201 22.9201 89.294 23.0899 89.2626ZM22.0055 89.2652C22.1048 89.226 22.2224 89.2313 22.2668 89.2757C22.3112 89.3201 22.2302 89.3541 22.0865 89.3462C21.9297 89.341 21.8983 89.3071 22.0055 89.2652ZM13.0031 89.2652C13.1024 89.226 13.22 89.2313 13.2644 89.2757C13.3089 89.3201 13.2278 89.3541 13.0841 89.3462C12.9247 89.341 12.8934 89.3071 13.0031 89.2652ZM89.6995 89.3567C89.5767 89.2783 89.5584 89.2234 89.6577 89.2234C89.7466 89.2234 89.8589 89.2835 89.9034 89.3567C90.0079 89.5266 89.9609 89.5266 89.6995 89.3567ZM86.0829 89.3567C85.8608 89.26 85.853 89.2365 86.0411 89.2287C86.1692 89.2234 86.3103 89.2809 86.3573 89.3567C86.454 89.5161 86.4488 89.5161 86.0829 89.3567ZM84.0682 89.341C84.1596 89.2469 84.272 89.2051 84.3138 89.2469C84.3556 89.2888 84.2798 89.3645 84.1466 89.4168C83.9506 89.4926 83.9349 89.4769 84.0682 89.341ZM62.3763 89.341C62.4677 89.2469 62.5801 89.2051 62.6219 89.2469C62.6637 89.2888 62.5879 89.3645 62.4547 89.4168C62.2587 89.4926 62.243 89.4769 62.3763 89.341ZM53.8182 89.3567C53.6953 89.2783 53.6796 89.2234 53.7763 89.2234C53.8652 89.2234 53.9776 89.2835 54.022 89.3567C54.1291 89.5266 54.0821 89.5266 53.8182 89.3567ZM25.4183 89.4011C25.5176 89.3619 25.6352 89.3672 25.6796 89.4116C25.724 89.456 25.6456 89.49 25.4993 89.4821C25.3399 89.4769 25.3085 89.4456 25.4183 89.4011ZM75.7217 89.503C75.6303 89.3567 75.8968 89.1529 76.0196 89.2757C76.064 89.3201 76.0275 89.3567 75.9334 89.3567C75.8419 89.3567 75.8053 89.4194 75.8498 89.4926C75.8968 89.5684 75.902 89.6285 75.8654 89.6285C75.8289 89.6311 75.7635 89.5736 75.7217 89.503ZM71.0572 89.5266C71.1069 89.4455 71.0703 89.3489 70.9762 89.3123C70.8717 89.2705 70.9004 89.2391 71.0441 89.2313C71.3133 89.2182 71.3629 89.4273 71.1251 89.5736C71.0311 89.6337 71.0023 89.6128 71.0572 89.5266ZM67.647 89.5266C67.6967 89.4455 67.6287 89.3515 67.4981 89.3175C67.2838 89.2626 67.2812 89.2522 67.4876 89.2391C67.7777 89.2182 67.9293 89.4429 67.715 89.5762C67.6183 89.6337 67.5921 89.6128 67.647 89.5266ZM64.3727 89.5266C64.4224 89.4455 64.3544 89.3515 64.2238 89.3175C64.0095 89.2626 64.0069 89.2522 64.2133 89.2391C64.5034 89.2182 64.6549 89.4429 64.4407 89.5762C64.3466 89.6337 64.3179 89.6128 64.3727 89.5266ZM36.5608 89.4926C36.4537 89.3201 36.8064 89.1764 37.1331 89.2626C37.2899 89.3044 37.2428 89.3332 36.9972 89.3436C36.7803 89.3515 36.6497 89.4194 36.6993 89.4952C36.7463 89.571 36.7542 89.6311 36.715 89.6311C36.6758 89.6311 36.6078 89.5684 36.5608 89.4926ZM32.9468 89.5056C32.9468 89.4351 32.8397 89.3515 32.709 89.3175C32.5287 89.2705 32.547 89.2522 32.7769 89.2391C32.9651 89.2287 33.0827 89.3018 33.0827 89.4273C33.0827 89.5396 33.0513 89.6311 33.0147 89.6311C32.9782 89.6311 32.9468 89.5736 32.9468 89.5056ZM18.8122 89.5161C18.8749 89.4168 18.7965 89.3541 18.5953 89.3436C18.3418 89.3306 18.3287 89.3149 18.5326 89.2626C18.8488 89.1816 19.1232 89.422 18.8827 89.571C18.7756 89.6363 18.7495 89.618 18.8122 89.5161ZM16.7791 89.4926C16.6851 89.3384 17.0849 89.1372 17.2182 89.2731C17.2652 89.3201 17.1972 89.3593 17.0666 89.3593C16.9359 89.3593 16.868 89.422 16.915 89.4952C16.9621 89.571 16.9699 89.6311 16.9307 89.6311C16.8941 89.6311 16.8262 89.5684 16.7791 89.4926ZM94.8658 89.5971C95.0356 89.3802 95.0095 89.3567 94.594 89.3384C94.1576 89.3201 94.1524 89.3149 94.526 89.26C95.033 89.1842 95.2473 89.3907 94.9233 89.6442C94.6985 89.8192 94.6933 89.814 94.8658 89.5971ZM57.393 89.6023C57.1839 89.3933 57.1839 89.2208 57.3877 89.2208C57.474 89.2208 57.5053 89.2626 57.4583 89.3097C57.4086 89.3593 57.4374 89.4821 57.521 89.5814C57.7092 89.8114 57.6151 89.8245 57.393 89.6023ZM13.6825 89.6102C13.8263 89.4273 13.8263 89.3724 13.6825 89.3149C13.5623 89.2652 13.5571 89.2417 13.6695 89.2339C13.9491 89.2156 13.9935 89.456 13.7453 89.652C13.531 89.8166 13.5258 89.8114 13.6825 89.6102ZM102.933 89.767C102.81 89.6886 102.794 89.6337 102.891 89.6337C102.98 89.6337 103.092 89.6938 103.136 89.767C103.241 89.9368 103.194 89.9368 102.933 89.767ZM93.1411 89.6311C92.9817 89.3776 93.1515 89.0823 93.3449 89.2757C93.3893 89.3201 93.3475 89.3567 93.2508 89.3567C93.1097 89.3567 93.1071 89.3959 93.2482 89.5658C93.3423 89.6807 93.3946 89.8009 93.3632 89.8323C93.3292 89.8637 93.2299 89.7748 93.1411 89.6311ZM59.1386 89.8009C59.1386 89.7147 59.2065 89.6049 59.2901 89.5527C59.3947 89.4874 59.3842 89.4246 59.2562 89.341C59.1333 89.2626 59.1255 89.2234 59.2326 89.2208C59.4966 89.2182 59.5358 89.409 59.3319 89.6886C59.2274 89.8375 59.1386 89.8872 59.1386 89.8009ZM11.8272 89.6206C11.6887 89.3985 11.6939 89.3358 11.8612 89.2731C11.9735 89.2313 12.1434 89.226 12.2401 89.2652C12.3368 89.3044 12.2688 89.341 12.0911 89.3462C11.8167 89.3541 11.7932 89.3881 11.9396 89.5658C12.0336 89.6807 12.0859 89.8009 12.0545 89.8323C12.0206 89.8637 11.9187 89.7696 11.8272 89.6206ZM110.856 89.9604C110.864 89.8009 110.895 89.7696 110.939 89.8767C110.979 89.976 110.973 90.0936 110.929 90.138C110.882 90.1851 110.848 90.1041 110.856 89.9604ZM81.9045 89.9368C81.7346 89.7199 81.7398 89.7147 81.9567 89.8846C82.1841 90.0623 82.2572 90.1746 82.1449 90.1746C82.1161 90.1772 82.009 90.0701 81.9045 89.9368ZM65.8361 89.9604C65.8413 89.8009 65.8753 89.7696 65.9197 89.8767C65.9589 89.976 65.9537 90.0936 65.9093 90.138C65.8622 90.1851 65.8283 90.1041 65.8361 89.9604ZM56.0289 89.9708C56.0315 89.7461 56.0629 89.6703 56.0968 89.8036C56.1308 89.9368 56.1282 90.1197 56.0916 90.2138C56.055 90.3053 56.0263 90.1981 56.0289 89.9708ZM107.879 90.3549C108.013 90.321 108.196 90.3236 108.29 90.3602C108.381 90.3967 108.274 90.4255 108.049 90.4229C107.822 90.4203 107.746 90.3889 107.879 90.3549ZM107.127 90.3602C107.221 90.3236 107.375 90.3236 107.469 90.3602C107.563 90.3994 107.487 90.4281 107.299 90.4281C107.108 90.4281 107.033 90.3967 107.127 90.3602ZM99.8961 90.3602C99.9902 90.3236 100.144 90.3236 100.238 90.3602C100.333 90.3994 100.254 90.4281 100.069 90.4281C99.883 90.4281 99.802 90.3967 99.8961 90.3602ZM42.9604 90.1433L42.7017 89.8375L43.0075 90.0962C43.2949 90.3393 43.3759 90.449 43.2662 90.449C43.2401 90.449 43.1042 90.3105 42.9604 90.1433ZM26.6099 90.2164C26.5367 90.0231 26.5524 90.0074 26.6856 90.1406C26.7797 90.2321 26.8215 90.3419 26.7797 90.3863C26.7379 90.4255 26.6621 90.3497 26.6099 90.2164ZM79.7042 90.496C79.7983 90.4595 79.9524 90.4595 80.0465 90.496C80.1406 90.5326 80.0648 90.564 79.8766 90.564C79.6885 90.564 79.6127 90.5326 79.7042 90.496ZM30.6315 90.5169C30.6315 90.4412 30.6916 90.2896 30.7648 90.1746C30.838 90.0623 30.8981 90.0309 30.8981 90.1067C30.8981 90.1825 30.838 90.3366 30.7648 90.449C30.6916 90.5614 30.6315 90.5927 30.6315 90.5169ZM24.5977 90.4934C24.697 90.4542 24.8146 90.4595 24.859 90.5039C24.9035 90.5483 24.8251 90.5823 24.6787 90.5744C24.522 90.5692 24.4906 90.5352 24.5977 90.4934ZM96.6558 90.679C96.6558 90.6555 96.8544 90.4569 97.1 90.2347L97.5443 89.8349L97.1444 90.2792C96.7681 90.692 96.6558 90.7861 96.6558 90.679ZM41.2671 90.7208C41.1443 90.6424 41.1286 90.5875 41.2253 90.5875C41.3142 90.5875 41.4265 90.6476 41.4709 90.7208C41.5781 90.8906 41.5311 90.8906 41.2671 90.7208ZM104.715 90.9141C104.723 90.7547 104.754 90.7234 104.798 90.8305C104.838 90.9298 104.832 91.0474 104.788 91.0918C104.741 91.1389 104.71 91.0605 104.715 90.9141ZM80.8148 90.8932C80.6449 90.6763 80.6501 90.6711 80.867 90.841C80.9977 90.9429 81.1048 91.0526 81.1048 91.0788C81.1048 91.1911 80.9925 91.1206 80.8148 90.8932ZM77.5771 90.8593C77.5771 90.6711 77.6084 90.5953 77.645 90.6894C77.6816 90.7835 77.6816 90.9377 77.645 91.0317C77.6084 91.1232 77.5771 91.0448 77.5771 90.8593ZM50.0892 91.0396C49.9637 90.9141 49.9742 89.2522 50.0996 89.1738C50.1571 89.1398 50.1806 89.5318 50.1571 90.0492L50.1127 90.9873L51.7956 91.0291L53.4784 91.0709L51.8295 91.0997C50.9228 91.118 50.1388 91.0892 50.0892 91.0396ZM26.8294 90.8593C26.8294 90.6711 26.8607 90.5953 26.8973 90.6894C26.9339 90.7835 26.9339 90.9377 26.8973 91.0317C26.8581 91.1232 26.8294 91.0448 26.8294 90.8593ZM102.055 91.0344C101.981 90.841 101.997 90.8253 102.13 90.9586C102.224 91.05 102.266 91.1598 102.224 91.2042C102.18 91.246 102.104 91.1702 102.055 91.0344ZM8.37259 90.888C8.32816 90.6163 8.34907 90.4908 8.42224 90.5666C8.49018 90.6345 8.52415 90.8358 8.49541 91.0134C8.45621 91.2878 8.4353 91.2669 8.37259 90.888ZM107.27 91.719C107.37 91.6798 107.487 91.685 107.532 91.7295C107.576 91.7739 107.495 91.8079 107.351 91.8C107.195 91.7974 107.163 91.7634 107.27 91.719ZM43.7339 91.5988C43.7392 91.4394 43.7731 91.408 43.8176 91.5152C43.8568 91.6145 43.8515 91.7321 43.8071 91.7765C43.7601 91.8209 43.7287 91.7399 43.7339 91.5988ZM26.8294 91.5413C26.8294 91.3532 26.8607 91.2774 26.8973 91.3715C26.9339 91.4655 26.9339 91.6197 26.8973 91.7112C26.8581 91.8052 26.8294 91.7295 26.8294 91.5413ZM108.909 91.8575C109.008 91.8183 109.126 91.8235 109.17 91.868C109.215 91.9124 109.136 91.9463 108.99 91.9385C108.833 91.9333 108.799 91.8993 108.909 91.8575ZM96.1332 92.0875C96.1332 91.8993 96.1645 91.8235 96.2011 91.9176C96.2377 92.0117 96.2377 92.1659 96.2011 92.2599C96.1619 92.3514 96.1332 92.273 96.1332 92.0875ZM42.234 92.1423C42.2418 91.9829 42.2732 91.9516 42.3176 92.0587C42.3568 92.158 42.3516 92.2756 42.3072 92.32C42.2601 92.3671 42.2288 92.2861 42.234 92.1423ZM55.7833 92.1894L55.5245 91.8836L55.8303 92.1423C56.1177 92.388 56.1988 92.4951 56.089 92.4951C56.0655 92.4951 55.927 92.3566 55.7833 92.1894ZM17.1685 91.4054C17.1685 90.7678 17.192 90.5065 17.2208 90.8253C17.2495 91.1441 17.2495 91.6667 17.2208 91.9856C17.192 92.3017 17.1685 92.043 17.1685 91.4054ZM8.42224 92.0875C8.42224 91.8261 8.45098 91.7164 8.48495 91.8497C8.51892 91.9803 8.51892 92.1946 8.48495 92.3279C8.44837 92.4559 8.42224 92.3488 8.42224 92.0875ZM33.8327 92.2233C33.7151 91.9986 33.6524 91.8131 33.6889 91.8131C33.7255 91.8131 33.8536 91.9986 33.9685 92.2233C34.0861 92.4481 34.1489 92.6336 34.1123 92.6336C34.0757 92.631 33.9503 92.4481 33.8327 92.2233ZM26.2623 92.5813C26.2623 92.5526 26.3695 92.4455 26.5001 92.3436C26.717 92.1737 26.7222 92.1789 26.5524 92.3958C26.3721 92.6205 26.2623 92.6937 26.2623 92.5813ZM103.46 92.597C103.636 92.3723 103.549 92.3592 102.002 92.3592C101.098 92.3592 100.327 92.3122 100.293 92.2573C100.21 92.1214 103.515 92.2077 103.654 92.3462C103.714 92.4063 103.651 92.5395 103.518 92.6441C103.293 92.8191 103.288 92.8165 103.46 92.597ZM92.5453 92.665C92.3754 92.4481 92.3806 92.4429 92.5975 92.6127C92.7282 92.7146 92.8353 92.8244 92.8353 92.8505C92.8353 92.9655 92.723 92.8923 92.5453 92.665ZM89.1638 92.6885C89.1717 92.5291 89.203 92.4977 89.2475 92.6049C89.2867 92.7042 89.2814 92.8218 89.237 92.8662C89.19 92.9132 89.1586 92.8322 89.1638 92.6885ZM64.1036 91.4054C64.1036 90.5431 64.1245 90.1903 64.1532 90.6215C64.1794 91.0526 64.1794 91.7582 64.1532 92.1894C64.1245 92.6205 64.1036 92.2678 64.1036 91.4054ZM54.2101 92.665C54.0403 92.4481 54.0455 92.4429 54.2624 92.6127C54.3931 92.7146 54.5002 92.8244 54.5002 92.8505C54.5002 92.9655 54.3878 92.8923 54.2101 92.665ZM83.049 92.5631C83.0516 92.2625 83.0778 92.1554 83.1117 92.3253C83.1457 92.4951 83.1431 92.7407 83.1091 92.8714C83.0725 93.0021 83.0464 92.8636 83.049 92.5631ZM30.9007 92.7695C30.9817 92.6206 31.0784 92.4977 31.115 92.4977C31.1516 92.4977 31.1176 92.6206 31.0366 92.7695C30.9556 92.9185 30.8589 93.0413 30.8223 93.0413C30.7831 93.0413 30.8197 92.9185 30.9007 92.7695ZM17.1319 92.8244C17.1371 92.665 17.1711 92.6336 17.2129 92.7407C17.2521 92.84 17.2469 92.9576 17.2025 93.0021C17.1581 93.0491 17.1267 92.9681 17.1319 92.8244ZM96.1201 92.9629C96.1253 92.8035 96.1593 92.7721 96.2037 92.8793C96.2429 92.9786 96.2377 93.0961 96.1932 93.1406C96.1488 93.185 96.1149 93.1066 96.1201 92.9629ZM42.2497 92.8374C42.2523 92.6127 42.2836 92.5369 42.3176 92.6702C42.3516 92.8035 42.349 92.9864 42.3124 93.0805C42.2758 93.1693 42.2471 93.0622 42.2497 92.8374ZM22.272 93.0779C22.5177 93.0465 22.8861 93.0491 23.0899 93.0805C23.2938 93.1118 23.0952 93.1353 22.6431 93.1353C22.1962 93.1353 22.029 93.1092 22.272 93.0779ZM107.265 93.219C107.435 93.1876 107.681 93.1876 107.811 93.2216C107.942 93.2555 107.804 93.2817 107.503 93.2817C107.203 93.2791 107.095 93.2503 107.265 93.219ZM101.059 93.219C101.192 93.185 101.375 93.1876 101.469 93.2242C101.561 93.2608 101.454 93.2895 101.229 93.2869C101.001 93.2843 100.926 93.2555 101.059 93.219ZM81.3871 93.0988C81.3949 92.9393 81.4263 92.908 81.4707 93.0151C81.5099 93.1144 81.5046 93.232 81.4602 93.2764C81.4132 93.3235 81.3818 93.2425 81.3871 93.0988ZM62.7395 91.6093C62.7395 90.6345 62.7604 90.253 62.7865 90.7626C62.8127 91.2721 62.8127 92.0692 62.7865 92.5369C62.7604 93.0021 62.7395 92.584 62.7395 91.6093ZM31.3083 93.2373C31.7735 93.1327 32.8083 93.1144 32.8083 93.2111C32.8083 93.2686 32.4242 93.3078 31.9564 93.2974C31.4887 93.2895 31.196 93.2608 31.3083 93.2373ZM108.773 93.3575C108.872 93.3183 108.99 93.3235 109.034 93.3679C109.079 93.4123 108.998 93.4463 108.854 93.4385C108.697 93.4332 108.663 93.4019 108.773 93.3575ZM59.1621 93.4515C59.1621 93.2634 59.1934 93.1876 59.23 93.2817C59.2666 93.3757 59.2666 93.5299 59.23 93.624C59.1908 93.7155 59.1621 93.6371 59.1621 93.4515ZM54.5289 93.3836C54.5315 93.1589 54.5629 93.0831 54.5969 93.2163C54.6308 93.3496 54.6282 93.5325 54.5916 93.6266C54.5524 93.7155 54.5237 93.6083 54.5289 93.3836ZM56.285 93.6449C56.2928 93.4855 56.3242 93.4541 56.3686 93.5613C56.4078 93.6606 56.4026 93.7782 56.3581 93.8226C56.3111 93.867 56.2798 93.7886 56.285 93.6449ZM13.5858 93.6449C13.5911 93.4855 13.625 93.4541 13.6695 93.5613C13.7087 93.6606 13.7034 93.7782 13.659 93.8226C13.612 93.867 13.578 93.7886 13.5858 93.6449ZM64.0827 93.5874C64.0827 93.3261 64.1114 93.2163 64.1454 93.3496C64.1794 93.4803 64.1794 93.6946 64.1454 93.8278C64.1114 93.9559 64.0827 93.8487 64.0827 93.5874ZM18.5404 91.949C18.5404 90.7861 18.5613 90.3105 18.5875 90.8906C18.6136 91.4734 18.6136 92.4246 18.5875 93.0047C18.5613 93.59 18.5404 93.1118 18.5404 91.949ZM105.386 94.0108C105.386 93.9193 105.316 93.8879 105.23 93.9402C105.128 94.0029 105.109 93.9768 105.177 93.867C105.25 93.7468 105.324 93.739 105.428 93.8435C105.509 93.9245 105.533 94.0317 105.48 94.0839C105.428 94.1362 105.386 94.1022 105.386 94.0108ZM98.0747 93.8252L97.816 93.5195L98.1218 93.7782C98.4092 94.0212 98.4902 94.131 98.3805 94.131C98.3569 94.1336 98.2185 93.9951 98.0747 93.8252ZM90.5932 92.9132C89.9243 92.2416 89.318 91.7295 89.2448 91.7739C89.1665 91.8209 89.156 91.7843 89.2187 91.685C89.2919 91.5648 89.7126 91.8993 90.6037 92.7878C91.3066 93.4881 91.8815 94.0787 91.8815 94.097C91.8815 94.1937 91.7221 94.0473 90.5932 92.9132ZM62.4913 93.9559C62.5435 93.82 62.6193 93.7468 62.6611 93.7886C62.7029 93.8304 62.6611 93.9402 62.567 94.0343C62.4338 94.1675 62.4155 94.1519 62.4913 93.9559ZM41.6774 94.0813C41.6774 94.0526 41.7845 93.9454 41.9152 93.8435C42.1321 93.6737 42.1373 93.6789 41.9674 93.8958C41.7898 94.1205 41.6774 94.1937 41.6774 94.0813ZM110.992 94.1885C110.999 94.029 111.031 93.9977 111.075 94.1074C111.114 94.2067 111.109 94.3243 111.065 94.3688C111.02 94.4132 110.986 94.3322 110.992 94.1885ZM59.3946 94.1675C59.2248 93.9507 59.23 93.9454 59.4469 94.1153C59.6743 94.293 59.7474 94.4053 59.6351 94.4053C59.6063 94.4053 59.4992 94.2982 59.3946 94.1675ZM109.207 94.4916C109.207 94.4628 109.314 94.3557 109.445 94.2538C109.662 94.0839 109.667 94.0891 109.497 94.306C109.319 94.5308 109.207 94.6039 109.207 94.4916ZM50.0552 94.3583C50.016 94.2564 50.0029 93.752 50.0265 93.2346C50.0604 92.4507 50.1075 92.2913 50.3087 92.273C50.4785 92.2573 50.489 92.2704 50.3426 92.3148C50.1806 92.3645 50.1362 92.6049 50.1362 93.3888V94.3975L51.8766 94.4393L53.6169 94.4811L51.874 94.5099C50.5125 94.536 50.1127 94.502 50.0552 94.3583ZM99.3604 94.5856C99.4597 94.5464 99.5773 94.5517 99.6217 94.5961C99.6661 94.6405 99.5851 94.6745 99.4414 94.6667C99.282 94.6614 99.2507 94.6275 99.3604 94.5856ZM77.6163 94.4994C77.5797 94.4001 77.5666 93.6188 77.5901 92.759L77.6346 91.199L77.6633 92.8636L77.692 94.5282L78.6824 94.5752L79.6728 94.6222L78.6798 94.6484C77.9638 94.6719 77.6659 94.6275 77.6163 94.4994ZM72.7035 94.5752C73.9317 94.5491 74.6791 94.4733 74.8176 94.3661C75.0057 94.2198 75.0083 94.2276 74.8437 94.4393C74.6791 94.6484 74.4256 94.6745 72.7296 94.6484L70.8011 94.6196L72.7035 94.5752ZM38.4632 94.502C38.4266 94.4053 38.4135 93.4385 38.4371 92.354L38.4789 90.3811L38.5102 92.4559L38.5416 94.5308L39.5294 94.5778L40.5198 94.6248L39.5268 94.651C38.816 94.6719 38.5102 94.6275 38.4632 94.502ZM36.958 92.6989C36.958 91.5727 36.9789 91.131 37.005 91.7164C37.0312 92.3017 37.0312 93.2216 37.005 93.7625C36.9789 94.3034 36.958 93.8252 36.958 92.6989ZM34.925 94.2695C34.8074 94.0447 34.7447 93.8592 34.7812 93.8592C34.8178 93.8592 34.9459 94.0447 35.0609 94.2695C35.1784 94.4942 35.2412 94.6797 35.2046 94.6797C35.168 94.6771 35.0399 94.4942 34.925 94.2695ZM14.639 94.5856C14.7383 94.5464 14.8558 94.5517 14.9003 94.5961C14.9447 94.6405 14.8663 94.6745 14.72 94.6667C14.5632 94.6614 14.5318 94.6275 14.639 94.5856ZM107.673 94.7189C107.843 94.6876 108.088 94.6876 108.219 94.7215C108.35 94.7555 108.211 94.7816 107.911 94.7816C107.61 94.779 107.506 94.7503 107.673 94.7189ZM96.776 94.5752C96.6061 94.3583 96.6114 94.3531 96.8282 94.5229C96.9589 94.6248 97.0661 94.7346 97.0661 94.7607C97.0661 94.8757 96.9537 94.8025 96.776 94.5752ZM85.9366 92.3592C85.9366 90.9716 85.9575 90.4046 85.981 91.0971C86.0045 91.7922 86.0045 92.9263 85.981 93.6214C85.9549 94.3165 85.9366 93.7468 85.9366 92.3592ZM89.1743 94.6771C89.1743 94.489 89.2056 94.4132 89.2422 94.5073C89.2814 94.6013 89.2814 94.7555 89.2422 94.8496C89.2056 94.9436 89.1743 94.8653 89.1743 94.6771ZM57.8372 94.8052C57.7876 94.7241 57.7771 94.6301 57.8111 94.5935C57.8477 94.5569 57.913 94.6222 57.9574 94.7398C58.0515 94.9802 57.9731 95.0247 57.8372 94.8052ZM8.43792 93.8592C8.43792 93.1458 8.46143 92.8557 8.49017 93.2111C8.51892 93.5665 8.51892 94.1519 8.49017 94.5073C8.46143 94.8653 8.43792 94.5726 8.43792 93.8592ZM82.1266 94.9515C82.2625 94.8025 82.4036 94.6797 82.4428 94.6797C82.4794 94.6797 82.401 94.8025 82.2651 94.9515C82.1292 95.1004 81.9881 95.2233 81.9489 95.2233C81.9097 95.2233 81.9907 95.1004 82.1266 94.9515ZM110.503 95.0874C110.639 94.9384 110.78 94.8156 110.819 94.8156C110.856 94.8156 110.777 94.9384 110.641 95.0874C110.506 95.2363 110.364 95.3591 110.325 95.3591C110.286 95.3618 110.367 95.2389 110.503 95.0874ZM104.953 95.2677C105.052 95.2285 105.169 95.2337 105.214 95.2781C105.258 95.3226 105.18 95.3565 105.034 95.3487C104.877 95.3435 104.843 95.3121 104.953 95.2677ZM92.7543 95.0534L92.4956 94.7477L92.8014 95.0064C92.9712 95.1501 93.1071 95.2886 93.1071 95.3121C93.1097 95.4219 93 95.3409 92.7543 95.0534ZM87.8468 92.5631C87.8468 90.9873 87.8677 90.3628 87.8912 91.1728C87.9147 91.9829 87.9147 93.2738 87.8912 94.0369C87.8651 94.8025 87.8468 94.1388 87.8468 92.5631ZM84.4366 92.5631C84.4366 90.9873 84.4575 90.3628 84.481 91.1728C84.5046 91.9829 84.5046 93.2738 84.481 94.0369C84.4549 94.8025 84.4366 94.1388 84.4366 92.5631ZM76.1137 92.4951C76.1137 90.8828 76.1346 90.2217 76.1581 91.0291C76.1816 91.8366 76.1816 93.1563 76.1581 93.9611C76.1346 94.7686 76.1137 94.11 76.1137 92.4951ZM63.3693 95.3095C63.3693 95.2808 63.4764 95.1736 63.6071 95.0717C63.824 94.9018 63.8292 94.9071 63.6593 95.124C63.4816 95.3487 63.3693 95.4219 63.3693 95.3095ZM20.3174 92.5631C20.3174 90.9873 20.3383 90.3628 20.3618 91.1728C20.3853 91.9829 20.3853 93.2738 20.3618 94.0369C20.3357 94.8025 20.3174 94.1388 20.3174 92.5631ZM17.8035 95.3095C17.8035 95.2808 17.9106 95.1736 18.0413 95.0717C18.2582 94.9018 18.2634 94.9071 18.0936 95.124C17.9159 95.3487 17.8035 95.4219 17.8035 95.3095ZM81.3766 95.4428C81.3766 95.414 81.4707 95.3539 81.5883 95.3069C81.7085 95.2598 81.7634 95.2834 81.7163 95.3618C81.6379 95.4924 81.3766 95.5551 81.3766 95.4428ZM69.2933 92.5631C69.2933 90.9115 69.3142 90.2556 69.3378 91.1049C69.3613 91.9542 69.3613 93.3026 69.3378 94.1074C69.3116 94.9097 69.2933 94.2146 69.2933 92.5631ZM65.8805 92.9054C65.8805 91.442 65.9014 90.8436 65.925 91.5753C65.9485 92.307 65.9485 93.5038 65.925 94.2355C65.9014 94.9672 65.8805 94.3688 65.8805 92.9054ZM26.6543 95.2572C26.4844 95.0403 26.4897 95.0351 26.7066 95.205C26.9339 95.3827 27.0071 95.495 26.8947 95.495C26.8633 95.4976 26.7562 95.3905 26.6543 95.2572ZM101.542 95.6753C101.642 95.6361 101.759 95.6414 101.804 95.6858C101.848 95.7302 101.77 95.7642 101.623 95.7564C101.467 95.7537 101.433 95.7198 101.542 95.6753ZM89.4095 95.5316C89.2396 95.3147 89.2448 95.3095 89.4617 95.4794C89.5924 95.5813 89.6995 95.691 89.6995 95.7171C89.6995 95.8295 89.5872 95.759 89.4095 95.5316ZM86.1352 95.5316C85.9653 95.3147 85.9705 95.3095 86.1874 95.4794C86.3181 95.5813 86.4252 95.691 86.4252 95.7171C86.4252 95.8295 86.3129 95.759 86.1352 95.5316ZM80.3888 95.6806C80.4829 95.644 80.6371 95.644 80.7312 95.6806C80.8252 95.7171 80.7494 95.7485 80.5613 95.7485C80.3705 95.7485 80.2948 95.7171 80.3888 95.6806ZM54.2023 95.6753C54.3016 95.6361 54.4192 95.6414 54.4636 95.6858C54.508 95.7302 54.427 95.7642 54.2833 95.7564C54.1265 95.7537 54.0951 95.7198 54.2023 95.6753ZM41.2436 95.6753C41.3429 95.6361 41.4605 95.6414 41.5049 95.6858C41.5493 95.7302 41.4709 95.7642 41.3246 95.7564C41.1652 95.7537 41.1339 95.7198 41.2436 95.6753ZM36.4929 95.7171C36.4929 95.6884 36.6 95.5813 36.7307 95.4794C36.9476 95.3095 36.9528 95.3147 36.7829 95.5316C36.6052 95.759 36.4929 95.8295 36.4929 95.7171ZM22.0159 95.5316C21.8461 95.3147 21.8513 95.3095 22.0682 95.4794C22.1988 95.5813 22.306 95.691 22.306 95.7171C22.306 95.8295 22.1936 95.759 22.0159 95.5316ZM7.98061 95.7171C7.98061 95.6884 8.08775 95.5813 8.21841 95.4794C8.4353 95.3095 8.44052 95.3147 8.27067 95.5316C8.09297 95.759 7.98061 95.8295 7.98061 95.7171ZM2.62623 95.5813C2.41195 95.4192 2.39105 95.1475 2.41718 93.0282L2.44854 90.6554L2.49035 92.9681C2.52432 94.8731 2.57136 95.3226 2.75428 95.5264C3.01298 95.8112 2.96071 95.8347 2.62623 95.5813ZM108.773 95.8138C108.872 95.7746 108.99 95.7799 109.034 95.8243C109.079 95.8687 108.998 95.9027 108.854 95.8948C108.695 95.8896 108.663 95.8556 108.773 95.8138ZM106.855 95.8164C106.949 95.7799 107.103 95.7799 107.197 95.8164C107.291 95.853 107.213 95.8844 107.027 95.8844C106.837 95.8844 106.761 95.853 106.855 95.8164ZM100.86 95.8138C100.96 95.7746 101.077 95.7799 101.122 95.8243C101.166 95.8687 101.088 95.9027 100.941 95.8948C100.782 95.8896 100.751 95.8556 100.86 95.8138ZM98.9423 95.8164C99.0364 95.7799 99.1906 95.7799 99.2846 95.8164C99.3787 95.853 99.3029 95.8844 99.1148 95.8844C98.924 95.8844 98.8482 95.853 98.9423 95.8164ZM61.8432 95.8138C61.9425 95.7746 62.0601 95.7799 62.1045 95.8243C62.1489 95.8687 62.0705 95.9027 61.9242 95.8948C61.7648 95.8896 61.7334 95.8556 61.8432 95.8138ZM59.7971 95.8138C59.8964 95.7746 60.014 95.7799 60.0584 95.8243C60.1028 95.8687 60.0244 95.9027 59.8781 95.8948C59.7187 95.8896 59.6873 95.8556 59.7971 95.8138ZM16.1311 95.8164C16.2252 95.7799 16.3793 95.7799 16.4734 95.8164C16.5675 95.853 16.4917 95.8844 16.3035 95.8844C16.1154 95.8844 16.037 95.853 16.1311 95.8164ZM14.2313 95.8138C14.3306 95.7746 14.4482 95.7799 14.4926 95.8243C14.537 95.8687 14.4586 95.9027 14.3123 95.8948C14.1529 95.8896 14.1215 95.8556 14.2313 95.8138ZM110.871 98.9758C110.874 98.751 110.905 98.6753 110.939 98.8085C110.973 98.9418 110.971 99.1247 110.934 99.2188C110.898 99.3103 110.869 99.2005 110.871 98.9758Z" fill="#BA9D64"/>
<path d="M88.5894 80.8668C88.5789 80.8485 88.5554 80.2292 88.5397 79.4949L88.5083 78.1569L89.4465 77.6839L90.3846 77.211V49.7832C90.3846 34.6974 90.335 22.3737 90.2749 22.3972C90.2147 22.4233 85.4483 26.4946 79.6811 31.4466C73.9164 36.3985 68.7319 40.8409 68.1596 41.3191C67.59 41.7973 66.8922 42.3958 66.61 42.6492L66.0978 43.1092V67.2574H61.8697V36.6024L64.6998 33.835C66.2572 32.3142 69.866 28.7603 72.7196 25.938C75.5732 23.1158 80.2377 18.5062 83.0886 15.697C85.937 12.8853 90.6616 8.22078 93.5883 5.328L98.9087 0.0703125L98.9767 34.4491C99.0316 62.167 99.0812 68.9325 99.2223 69.3741C99.319 69.6746 99.5568 70.4115 99.7502 71.0099C100.605 73.6727 102.097 75.6718 103.91 76.5786C105.34 77.2946 106.283 77.5036 108.523 77.6056L110.501 77.6944V80.8328L99.5516 80.8668C93.5335 80.8851 88.5998 80.8851 88.5894 80.8668ZM0.478628 79.2728V77.6448L2.03346 77.6343C7.63609 77.6003 10.2127 75.3608 11.8067 69.1441C12.0706 68.1172 12.0759 67.456 12.0759 34.0911V0.0833751L13.8136 1.78193C16.2804 4.19389 34.5752 22.2404 41.0663 28.6636C44.0688 31.6347 47.1236 34.6399 47.8553 35.3428L49.1854 36.6207V67.2574H44.9573V43.1274L41.1708 39.8897C37.7999 37.0048 36.441 35.8367 35.0665 34.6373C34.8418 34.4413 31.5283 31.5982 27.7026 28.3212C21.9954 23.4294 20.7333 22.405 20.6549 22.6089C20.5373 22.9146 20.5059 76.1631 20.6209 76.785C20.6941 77.177 20.8195 77.2946 21.5747 77.6683L22.4449 78.0968V80.9034H0.481236L0.478628 79.2728ZM0.159822 85.3118C0.110172 85.2621 0.0683594 84.9538 0.0683594 84.6297V84.0392L55.491 84.0731L110.914 84.1071L110.911 84.7212L110.908 85.3353L55.5798 85.3693C25.1469 85.3876 0.209472 85.3614 0.159822 85.3118ZM87.7009 95.5214C87.8942 95.3071 87.9256 94.8917 87.9256 92.5659C87.9256 90.2376 87.8942 89.8247 87.7009 89.6104C87.484 89.37 87.5206 89.3622 88.6704 89.3622C89.7365 89.3622 89.8567 89.3857 89.7783 89.5921C89.713 89.7646 90.1416 90.2768 91.4325 91.5703C92.3915 92.532 93.2225 93.3185 93.28 93.3185C93.4603 93.3185 93.4028 89.7097 93.2199 89.5268C93.0918 89.3988 93.28 89.3622 94.0666 89.3622C94.8531 89.3622 95.0387 89.3988 94.9132 89.5268C94.7042 89.7359 94.678 95.5031 94.8871 95.5031C94.9629 95.5031 95.023 95.5659 95.023 95.639C95.023 95.72 94.5631 95.7749 93.915 95.7749C92.9246 95.7749 92.8253 95.7514 92.9847 95.5606C93.1363 95.3777 92.9011 95.0876 91.2705 93.4544C90.2304 92.4118 89.342 91.5834 89.2975 91.6121C89.1303 91.7166 89.2479 95.3542 89.4256 95.5685C89.5771 95.7514 89.4726 95.7775 88.5371 95.7775C87.5153 95.7697 87.484 95.7592 87.7009 95.5214ZM84.2881 95.5214C84.4815 95.3071 84.5128 94.8917 84.5128 92.5659C84.5128 90.2376 84.4815 89.8247 84.2881 89.6104C84.0712 89.37 84.1078 89.3622 85.2079 89.3622C85.984 89.3648 86.2872 89.4066 86.1487 89.4928C85.8534 89.681 85.788 94.8446 86.0755 95.3986L86.2689 95.7697H85.1635C84.1052 95.7697 84.0712 95.7592 84.2881 95.5214ZM80.6401 94.3403C81.8526 93.5459 81.7951 91.3325 80.546 90.6845C80.1828 90.4963 79.8117 90.4519 78.8527 90.4806L77.6245 90.5172L77.5827 92.4144C77.5592 93.457 77.5775 94.403 77.6193 94.5154C77.7317 94.8002 80.1514 94.6617 80.6401 94.3403ZM75.9547 95.5345C76.1664 95.3019 76.1925 94.9465 76.1925 92.498C76.1925 90.0181 76.1664 89.7071 75.9547 89.5451C75.581 89.2629 80.2821 89.2786 81.1183 89.5634C82.2942 89.9632 82.8822 90.8047 82.9841 92.2367C83.0965 93.7993 82.5895 94.8106 81.377 95.4404C80.9772 95.6495 80.4781 95.6991 78.3065 95.7435C75.7509 95.7984 75.7195 95.7958 75.9547 95.5345ZM65.7215 95.5815C65.9358 95.4195 65.9593 95.1059 65.9593 92.5947C65.9593 90.2245 65.9254 89.7542 65.7451 89.5739C65.5491 89.3779 65.6327 89.3596 66.6597 89.3596C67.5377 89.3596 67.752 89.3962 67.6239 89.5242C67.4149 89.7333 67.3887 95.5005 67.5978 95.5005C67.6736 95.5005 67.7337 95.5632 67.7337 95.6364C67.7337 95.7174 67.2712 95.7723 66.6074 95.7697C65.6431 95.7618 65.5177 95.7357 65.7215 95.5815ZM54.0773 90.8047C54.4353 90.4806 54.4588 89.7594 54.1217 89.4563C53.9257 89.2812 53.5102 89.2341 51.9737 89.2159L50.0661 89.1923L50.0242 89.9763C49.9589 91.2149 49.8779 91.1653 51.9632 91.1104C53.5285 91.0712 53.8316 91.0268 54.0773 90.8047ZM53.8917 94.3455C54.4353 94.1182 54.7123 93.6295 54.5842 93.1225C54.4274 92.4954 54.0511 92.383 51.9763 92.3412L50.0661 92.302L50.0242 93.2375C50.0007 93.7523 50.0164 94.2566 50.053 94.3586C50.1601 94.6251 53.2437 94.6147 53.8917 94.3455ZM48.0905 95.6443C48.0905 95.5632 48.1506 95.4979 48.2264 95.4979C48.3152 95.4979 48.3623 94.2044 48.3623 91.8917C48.3623 89.634 48.31 88.2542 48.2264 88.1993C47.8501 87.9668 48.3388 87.9302 51.2629 87.9642C53.8421 87.9955 54.532 88.0425 54.9475 88.2255C55.6399 88.526 56.0032 89.1427 56.0032 90.0207C56.0032 90.6296 55.9457 90.7733 55.5511 91.1653L55.099 91.6121L55.653 92.1086C56.1939 92.5921 56.207 92.626 56.207 93.4962C56.207 94.5389 55.9588 94.9779 55.1069 95.4221C54.6156 95.6808 54.2889 95.707 51.3282 95.7488C49.0731 95.7775 48.0905 95.7462 48.0905 95.6443ZM41.3355 94.3899C41.8895 94.1181 42.2422 93.5746 42.3232 92.8691C42.4121 92.0825 42.1874 91.4161 41.67 90.9196C41.278 90.546 41.1865 90.5224 39.8303 90.4728L38.4035 90.4205V92.4588C38.4035 93.5798 38.4505 94.5467 38.5054 94.6042C38.6674 94.7688 40.9069 94.6016 41.3355 94.3899ZM36.8278 95.4195C37.0943 94.9047 37.0891 90.2167 36.8225 89.6993L36.6448 89.357H38.9314C41.5942 89.357 42.3311 89.5138 43.0184 90.2193C44.0349 91.2672 44.1342 93.4387 43.2248 94.6434C42.5428 95.5449 42.0463 95.6808 39.1874 95.7409L36.6292 95.7958L36.8278 95.4195ZM32.8113 93.2428C32.8113 93.0729 31.8445 91.2672 31.753 91.2698C31.6511 91.2724 30.7626 93.0206 30.7652 93.2114C30.7652 93.2689 31.2277 93.3133 31.7896 93.3133C32.3488 93.3159 32.8113 93.2819 32.8113 93.2428ZM28.058 95.5894C28.3297 95.3829 30.9011 90.2559 30.9011 89.9214C30.9011 89.7908 30.8279 89.613 30.7365 89.5216C30.6084 89.3935 30.8358 89.357 31.7556 89.357H32.9394L32.8584 89.7646C32.7904 90.1017 33.0178 90.6243 34.1649 92.7907C34.928 94.2305 35.6571 95.4875 35.7851 95.5868C35.9811 95.7357 35.8165 95.7644 34.7529 95.7671C33.5404 95.7723 33.496 95.7618 33.6528 95.511C33.786 95.2993 33.7677 95.1425 33.5639 94.6931L33.3131 94.1364H30.2661L30.0361 94.6173C29.7774 95.1608 29.7409 95.5005 29.9421 95.5005C30.0179 95.5005 30.078 95.5632 30.078 95.6364C30.078 95.7174 29.6154 95.7723 28.9517 95.7697C28.0214 95.7618 27.8698 95.7331 28.058 95.5894ZM25.0633 91.7794C25.4396 91.4815 25.4866 91.0372 25.173 90.7237C24.9143 90.465 24.7549 90.4414 23.3647 90.478L21.8413 90.5172L21.8491 90.8595C21.8543 91.0477 21.8674 91.3691 21.8778 91.5755L21.8961 91.9518H23.37C24.3447 91.9492 24.9196 91.8917 25.0633 91.7794ZM20.1688 95.5214C20.3622 95.3071 20.3936 94.8917 20.3936 92.5659C20.3936 90.1958 20.3648 89.8273 20.1584 89.6C19.9284 89.3465 19.9781 89.3413 22.7846 89.3857C25.9596 89.4354 26.3411 89.5268 26.6652 90.3082C26.9003 90.8752 26.869 91.7689 26.5972 92.1818C26.4744 92.37 26.1007 92.6443 25.7715 92.7907C25.4396 92.937 25.1704 93.0938 25.1704 93.1356C25.1704 93.2898 26.4613 95.0302 26.8507 95.3986L27.2479 95.7749H25.9361C24.687 95.7749 24.6321 95.7618 24.7837 95.5188C24.9196 95.2993 24.8359 95.1059 24.1931 94.1887L23.4405 93.1147L22.6696 93.0729L21.8987 93.0311V94.2384C21.8987 94.9962 21.9588 95.5058 22.0634 95.6103C22.1914 95.7383 21.9745 95.7749 21.0861 95.7749C19.9885 95.7697 19.9519 95.7618 20.1688 95.5214ZM0.61451 95.6338C0.61451 95.558 0.677223 95.4979 0.750392 95.4979C0.83924 95.4979 0.886282 94.2044 0.886282 91.8917C0.886282 89.634 0.834013 88.2542 0.750392 88.1993C0.41068 87.9903 0.713813 87.9276 2.04653 87.9276C2.83309 87.9276 3.47854 87.9615 3.47854 88.0033C3.47854 88.0452 3.41059 88.1471 3.32959 88.2281C3.21983 88.3378 3.48377 88.9598 4.29646 90.5068C4.91055 91.6775 5.4567 92.6339 5.51158 92.6339C5.56646 92.6339 5.87742 92.1269 6.20407 91.5076C6.53071 90.8883 7.03244 89.9737 7.3225 89.4719C7.84514 88.5652 7.97057 88.1314 7.71187 88.1314C7.63609 88.1314 7.57598 88.0844 7.57598 88.0295C7.57598 87.972 8.22143 87.9276 9.008 87.9276C9.79456 87.9276 10.44 87.9746 10.44 88.0295C10.44 88.087 10.3773 88.1314 10.3041 88.1314C10.2153 88.1314 10.1682 89.451 10.1682 91.816C10.1682 94.1809 10.2179 95.5005 10.3041 95.5005C10.3799 95.5005 10.44 95.5632 10.44 95.6364C10.44 95.7174 9.96442 95.7723 9.28761 95.7723H8.1352L8.33119 95.396C8.48275 95.1085 8.52195 94.5023 8.50627 92.7985C8.49581 91.5755 8.44617 90.5538 8.39913 90.5224C8.32074 90.4728 5.7938 94.8498 5.58736 95.396C5.53771 95.5267 5.45671 95.6338 5.40967 95.6338C5.32605 95.6338 4.36963 93.896 3.13883 91.5076C2.83832 90.9249 2.54825 90.4493 2.49076 90.4493C2.43327 90.4493 2.38885 91.5625 2.38885 92.9239C2.38885 95.1216 2.41498 95.4195 2.62664 95.5789C2.83047 95.7331 2.70504 95.7618 1.74078 95.7644C1.07704 95.7671 0.61451 95.7148 0.61451 95.6338ZM106.751 95.7801C106.414 95.7174 105.894 95.5659 105.598 95.443C105.303 95.3202 104.979 95.2496 104.882 95.2862C104.639 95.3803 104.658 95.2288 104.984 94.4945L105.264 93.8647L105.549 94.1312C105.949 94.5023 107.605 94.8603 108.421 94.7479C109.283 94.6303 109.688 94.3037 109.568 93.8255C109.466 93.4204 109.348 93.3865 107.344 93.1879C105.457 92.9997 104.796 92.5267 104.799 91.3639C104.801 89.9789 105.774 89.289 107.71 89.2995C108.494 89.3047 109.069 89.3857 109.484 89.5503C109.821 89.6862 110.268 89.8273 110.475 89.8665C110.927 89.9528 110.932 89.9998 110.55 90.7132C110.268 91.2411 110.03 91.4344 110.03 91.1391C110.03 90.8674 108.899 90.4362 108.005 90.3683C106.963 90.2899 106.171 90.5852 106.1 91.079C106.035 91.539 106.343 91.6618 107.916 91.8107C108.967 91.91 109.586 92.0433 110.023 92.2602C111.541 93.0128 111.371 94.9073 109.727 95.5658C109.045 95.8324 107.616 95.9369 106.751 95.7801ZM98.8852 95.7644C97.2285 95.4378 96.2276 94.2331 96.2198 92.5581C96.2094 90.6452 97.806 89.2211 99.9619 89.2211C100.49 89.2211 102.865 89.6993 103.045 89.843C103.069 89.8613 102.928 90.1958 102.729 90.5851C102.423 91.1888 102.345 91.262 102.209 91.0817C101.741 90.4597 99.7319 90.1879 98.8826 90.6322C98.6422 90.7576 98.2816 91.0764 98.0804 91.3404C97.7799 91.7349 97.7145 91.9597 97.7224 92.5895C97.7302 93.4152 97.9393 93.8203 98.6187 94.3298C99.0917 94.6826 100.696 94.7897 101.504 94.5206C102.018 94.3481 102.05 94.3089 102.05 93.7941V93.2506L101.368 93.2297C100.978 93.2166 100.555 93.2924 100.377 93.4021C100.072 93.5955 100.069 93.5955 100.074 92.741C100.077 92.0929 100.113 91.944 100.218 92.1243C100.338 92.3307 100.581 92.3621 102.016 92.3621C103.304 92.3621 103.636 92.3987 103.511 92.5267C103.309 92.7279 103.286 94.6826 103.484 94.6826C103.829 94.6826 103.56 94.9491 102.951 95.2105C101.519 95.8193 100.129 96.0101 98.8852 95.7644ZM59.6355 95.7644C58.747 95.5397 58.1825 95.2078 57.9421 94.7636C57.7566 94.4213 57.7017 93.8803 57.6625 92.0198C57.6364 90.6949 57.5554 89.6261 57.4744 89.5294C57.3646 89.3962 57.5632 89.3596 58.3994 89.3596C59.2304 89.3596 59.429 89.3962 59.3036 89.5242C59.1024 89.7254 59.0736 93.3995 59.2696 93.9143C59.4761 94.4605 60.132 94.7192 61.1433 94.6539C61.8671 94.6068 62.0762 94.5363 62.3845 94.2279L62.7556 93.8568V91.7402C62.7556 90.0077 62.719 89.6 62.5518 89.4955C62.4133 89.4066 62.685 89.3648 63.4063 89.3648L64.4672 89.3622L64.2582 89.681C64.0909 89.9371 64.0517 90.431 64.0622 92.1374C64.0779 94.5964 63.9707 94.9335 62.9934 95.4744C62.3427 95.8298 60.5292 95.9892 59.6355 95.7644ZM13.9155 95.7253C12.2954 95.3072 12.0732 94.842 12.0732 91.8369C12.0732 90.3447 12.0236 89.634 11.9086 89.5216C11.7806 89.3935 11.9844 89.357 12.8232 89.357C13.662 89.357 13.8633 89.3935 13.7378 89.5216C13.5314 89.728 13.5105 93.6217 13.7143 94.0032C13.9704 94.4814 14.6315 94.7113 15.5775 94.6512C16.2909 94.6068 16.5104 94.531 16.8057 94.2384C17.1532 93.8934 17.1663 93.8176 17.2107 91.9936C17.2473 90.5433 17.2133 90.0207 17.0618 89.7333L16.8658 89.357H18.9119L18.7002 89.6601C18.5304 89.9031 18.4886 90.3866 18.4886 92.0825C18.4886 94.6094 18.3684 94.9779 17.3884 95.4639C16.6045 95.8533 14.9059 95.9813 13.9155 95.7253ZM74.8284 95.9056C74.8284 95.8193 73.7466 95.7671 71.8625 95.7644C69.3669 95.7618 68.9331 95.7305 69.1343 95.5789C69.3486 95.4169 69.3721 95.1033 69.3721 92.5633C69.3721 90.0233 69.346 89.7097 69.1343 89.5477C68.9305 89.3936 69.0612 89.3648 70.0489 89.3622C70.9453 89.3596 71.1648 89.3935 71.0393 89.5216C70.9243 89.6366 70.8747 90.4231 70.8747 92.1818V94.6774H72.7405C74.2849 94.6774 74.6481 94.6382 74.8546 94.4526C75.095 94.2357 75.1028 94.2645 75.1028 95.1347C75.1028 95.6495 75.0427 96.0414 74.9669 96.0414C74.8911 96.0441 74.8284 95.9813 74.8284 95.9056ZM0.0683594 99.3184V98.6363H110.846L110.867 99.0126C110.877 99.219 110.893 99.5117 110.898 99.6607C110.911 99.9325 110.812 99.9324 55.4884 99.9664L0.0683594 100V99.3184Z" fill="#2C3178"/>
</svg>
