<svg width="250" height="42" viewBox="0 0 250 42" fill="none" xmlns="http://www.w3.org/2000/svg">
<path fill-rule="evenodd" clip-rule="evenodd" d="M9.97487 21.9904C10.3178 20.7508 10.9842 19.4328 11.6064 18.3157C12.4443 16.8165 13.4144 15.3613 14.4629 13.9992C15.9622 12.0492 18.0396 9.75616 20.2248 8.58026L20.4061 8.48226L20.607 8.53126C21.239 8.69785 21.9642 9.33479 22.4443 9.78065L22.459 9.79535L22.4737 9.81005C23.7966 11.2162 24.9578 12.7547 26.0602 14.3373L26.6335 15.1653L23.8407 15.1506L23.6888 14.9203C22.8755 13.6954 21.9201 12.3921 20.8029 11.4269C20.7491 11.3975 20.6854 11.3583 20.6364 11.3387C20.6021 11.3338 20.558 11.3387 20.5188 11.3387C20.2395 11.373 19.6712 11.7895 19.4703 11.9512C18.8039 12.4705 18.1719 13.1026 17.6035 13.7297C16.0454 15.4446 14.6344 17.473 13.5859 19.5357C12.9685 20.7508 12.4394 22.0443 12.1111 23.3672C11.8122 24.5627 11.6652 25.8317 11.8269 27.0615C11.871 27.2379 12.067 27.3849 12.2336 27.4829L30.0044 27.4682H30.0289C31.4155 27.5906 32.2876 28.4138 32.5718 29.7612V29.771V29.7807C32.7971 31.1869 32.8804 32.6029 32.8902 34.0238V34.0336V34.0483C32.8804 34.3129 32.8118 34.5677 32.6844 34.7979C32.2631 35.5525 31.3714 35.7975 30.5629 35.773H10.0141C9.578 35.773 9.13705 35.5672 8.81367 35.283C8.41681 34.94 8.17182 34.4647 8.11302 33.9454L8.10813 33.916L8.12283 30.5549L10.9695 30.5696L10.9352 32.7303C10.9597 33.2203 11.3321 33.3232 11.7681 33.3575L15.9573 33.382H29.1028H29.1127C29.7839 33.4065 30.0877 33.2105 30.1024 32.5245L30.0681 30.4863C30.0387 30.0159 29.7643 29.722 29.2743 29.7563H29.2547L23.2919 29.7513H10.6755L10.6118 29.7318C9.53391 29.4427 9.03415 28.6245 9.06845 27.5368C9.04395 25.6455 9.40652 23.7886 9.97487 21.9904ZM68.0791 29.0115C68.0791 24.9596 66.9816 20.7361 59.2794 17.2623C55.9232 15.7582 53.8947 14.3128 53.8947 11.4171C53.8947 8.58025 55.5753 6.8458 58.6964 6.8458C61.1265 6.8458 63.2677 7.71303 64.6591 8.58026L66.6288 2.85264C64.7179 1.57875 61.592 0.540039 57.3098 0.540039C49.5537 0.540039 44.6933 6.09616 44.6933 12.8086C44.6933 16.6842 46.4278 21.0252 52.6209 23.8033C56.6728 25.5965 58.177 27.1595 58.177 29.7073C58.177 32.5441 56.1535 34.455 52.8511 34.455C50.0731 34.455 47.7017 33.4701 46.4278 32.6029L44.2867 39.1439C46.5454 40.648 49.784 41.5153 54.7032 41.5153C62.5817 41.5104 68.0791 36.1894 68.0791 29.0115ZM95.1836 39.1978V20.5597C95.1836 12.108 89.9753 9.15841 82.915 9.15841C77.4177 9.15841 73.3657 10.6038 71.1658 11.5298L73.1354 16.6793C75.159 15.7533 78.231 14.7684 81.2393 14.7684C84.5368 14.7684 86.7367 15.6944 86.7367 18.938V20.3834C77.3589 21.2506 69.3137 23.622 69.3137 31.6671C69.3137 38.1493 73.9439 41.5055 82.9738 41.5055C88.3535 41.5104 92.577 40.5843 95.1836 39.1978ZM86.7318 35.9004C85.9233 36.307 84.7621 36.5373 83.4344 36.5373C79.8479 36.5373 77.7606 34.9743 77.7606 31.329C77.7606 26.3511 81.2932 25.0772 86.7318 24.5578V35.9004ZM140.808 41.5104V19.6337C140.808 14.1364 136.987 9.73655 129.579 9.73655C124.429 9.73655 121.244 11.1819 119.275 12.8625C117.482 11.128 114.527 9.73655 109.378 9.73655C103.939 9.73655 100.235 10.4862 96.7612 12.0541V41.5153H105.791V15.9933C106.889 15.5867 107.815 15.4152 109.436 15.4152C112.562 15.4152 114.297 17.0369 114.297 19.5259V41.5202H123.327V16.9243C124.37 15.8806 125.698 15.4201 127.261 15.4201C130.387 15.4201 131.774 17.2721 131.774 19.6435V41.5202H140.808V41.5104ZM177.114 41.5104L164.209 1.69144H155.066L142.102 41.5104H150.495L153.043 33.0047H165.022L167.452 41.5104H177.114ZM163.743 27.62H154.424L158.129 14.6557C158.937 11.8189 159.172 9.85414 159.172 9.85414H159.285C159.285 9.85414 159.456 11.8777 160.211 14.6557L163.743 27.62ZM203.352 39.0802V9.73655H194.322V34.6803C193.337 35.1997 192.181 35.43 190.559 35.43C187.492 35.43 186.277 33.5779 186.277 31.3192V9.73165H177.247V30.6823C177.247 38.208 181.529 41.5055 190.329 41.5055C196.174 41.5104 200.456 40.5305 203.352 39.0802ZM222.352 40.5304V34.9743C221.598 35.2046 221.196 35.3222 220.441 35.3222C218.418 35.3222 217.546 34.0483 217.546 31.6769V15.5867H222.347V9.74146H217.546V0.765416L208.516 3.08292V9.74146H205.101V15.5867H208.516V32.3726C208.516 37.1742 211.353 41.4026 217.894 41.4026C219.976 41.3977 221.598 40.8734 222.352 40.5304ZM250.094 25.3074C250.094 15.9884 245.346 9.15841 236.262 9.15841C227.291 9.15841 222.543 15.9884 222.543 25.3074C222.543 34.6264 227.291 41.5153 236.316 41.5153C245.346 41.5104 250.094 34.6264 250.094 25.3074ZM241.123 25.1898C241.123 30.8048 240.314 35.3761 236.321 35.3761C232.387 35.3761 231.519 30.8048 231.519 25.1898C231.519 19.6337 232.328 14.7733 236.321 14.7733C240.309 14.7733 241.123 19.6337 241.123 25.1898ZM4.03168 36.4883C4.09047 22.0786 16.8931 5.52291 20.5041 4.39111C23.4487 4.62139 37.7408 23.2594 36.9765 36.5912C36.8393 37.625 36.2415 38.2276 35.1391 38.3648L6.00621 38.3795C4.79601 38.2424 4.08067 37.5368 4.03168 36.4883ZM40.7688 38.551C40.4993 40.0993 39.4949 41.0645 37.9564 41.3242L37.8927 41.334L3.10565 41.4467L3.06155 41.4418C1.70437 41.3046 0.479473 40.2022 0.170799 38.8793L0.156101 38.8205L0.151197 38.7568C-0.304465 32.7842 2.02285 26.1208 4.57063 20.8047C5.81023 18.2177 7.22131 15.7043 8.74998 13.279C10.1219 11.1035 11.6064 8.98202 13.2037 6.96339C14.4433 5.39552 18.1768 0.824209 20.2836 0.564531L20.3326 0.559627H20.3816C22.4198 0.559627 26.4375 5.42983 27.6085 6.8801C29.2792 8.94773 30.8324 11.1329 32.2631 13.3769C33.8652 15.8855 35.3302 18.497 36.6041 21.1869C39.0637 26.3853 41.1509 32.6519 40.7737 38.4677L40.7688 38.5118V38.551Z" fill="#CD2628"/>
</svg>
