<svg width="320" height="320" viewBox="0 0 320 320" fill="none" xmlns="http://www.w3.org/2000/svg">
<circle cx="160" cy="160" r="160" fill="white"/>
<path d="M293.213 186.269C287.573 190.029 279.963 188.658 275.99 183.166L243.531 138.271C238.097 130.751 229.379 126.294 220.103 126.294C208.257 126.294 197.134 131.974 190.197 141.579L152.518 193.698L150.227 196.867C139.728 211.397 122.899 220 104.979 220H102.894H102.04C84.3167 220 66.5276 213.162 56.1432 198.796L23.1264 150.921C19.3502 145.7 20.8607 138.451 25.6301 134.133C33.0265 127.804 41.8348 131.621 46.2348 137.712L75.9599 179.858C82.248 188.551 92.3205 193.698 103.05 193.698H107.056C117.695 192.056 122.628 188.765 128.449 182.616L168.246 126.302L168.615 125.776C180.034 109.613 198.595 100 218.387 100C236.373 100 253.267 108.636 263.8 123.207L296.455 168.381C300.634 174.185 299.164 182.304 293.213 186.269Z" fill="url(#paint0_linear_427_20363)"/>
<defs>
<linearGradient id="paint0_linear_427_20363" x1="20.989" y1="160" x2="298.832" y2="160" gradientUnits="userSpaceOnUse">
<stop stop-color="#36C59E"/>
<stop offset="0.1039" stop-color="#35BEA1"/>
<stop offset="0.2588" stop-color="#32A9AA"/>
<stop offset="0.4457" stop-color="#2C88B8"/>
<stop offset="0.6576" stop-color="#255ACC"/>
<stop offset="0.8873" stop-color="#1C1FE5"/>
<stop offset="1" stop-color="#1700F2"/>
</linearGradient>
</defs>
</svg>
